<?xml version="1.0" encoding="UTF-8"?>
<svg width="143px" height="123px" viewBox="0 0 143 123" version="1.1" xmlns="http://www.w3.org/2000/svg" xmlns:xlink="http://www.w3.org/1999/xlink">
    <!-- Generator: sketchtool 55.2 (78181) - https://sketchapp.com -->
    <title>CDBFD7B5-1C44-477B-9730-F40992395BDC</title>
    <desc>Created with sketchtool.</desc>
    <defs>
        <polygon id="path-1" points="0.448586793 0.116783386 37.8352251 0.116783386 37.8352251 41.613018 0.448586793 41.613018"></polygon>
        <polygon id="path-3" points="0.150057075 0.397101124 3.36884005 0.397101124 3.36884005 3.62192994 0.150057075 3.62192994"></polygon>
    </defs>
    <g id="Landing-page" stroke="none" stroke-width="1" fill="none" fill-rule="evenodd">
        <g id="Landing-page-RUN-IN-LYON-2019" transform="translate(-469.000000, -722.000000)">
            <g id="4-PLUS" transform="translate(0.000000, 662.000000)">
                <g id="Group-165" transform="translate(469.000000, 60.000000)">
                    <path d="M46.7545627,121.878903 C46.7545627,114.387881 40.692926,108.315274 33.216463,108.315274 C25.7390804,108.315274 19.6774437,114.387881 19.6774437,121.878903 L46.7545627,121.878903 Z" id="Fill-1" fill="#12893D"></path>
                    <path d="M23.2563521,121.878489 C23.2563521,117.704781 19.8795289,114.32159 15.7136768,114.32159 C11.5478248,114.32159 8.1705418,117.704781 8.1705418,121.878489 L23.2563521,121.878489 Z" id="Fill-3" fill="#0CB148"></path>
                    <path d="M104.825851,121.682334 C104.825851,117.047491 101.076124,113.290233 96.4495457,113.290233 C91.8238865,113.290233 88.0732402,117.047491 88.0732402,121.682334 L104.825851,121.682334 Z" id="Fill-5" fill="#12893D"></path>
                    <path d="M23.2563521,121.878489 C23.2563521,117.704781 19.8795289,114.32159 15.7136768,114.32159 C11.5478248,114.32159 8.1705418,117.704781 8.1705418,121.878489 L23.2563521,121.878489 Z" id="Fill-7" fill="#0CB148"></path>
                    <path d="M56.4764936,47.410327 C56.4764936,44.9079449 58.5014839,42.879136 60.9991559,42.879136 C63.4972878,42.879136 65.5218183,44.9079449 65.5218183,47.410327 C65.5218183,49.9131697 63.4972878,51.941518 60.9991559,51.941518 C58.5014839,51.941518 56.4764936,49.9131697 56.4764936,47.410327" id="Fill-9" fill="#1E2422"></path>
                    <path d="M55.8981482,20.7704157 C55.2659135,17.4738315 57.4214891,14.2873483 60.7118685,13.6534607 C64.0027077,13.0200337 67.1831932,15.1792135 67.815428,18.4762584 C68.4481225,21.7733034 66.2925469,24.9597865 63.0017077,25.5932135 C59.7108685,26.2271011 56.5308428,24.0674607 55.8981482,20.7704157" id="Fill-11" fill="#57E589"></path>
                    <path d="M49.885665,21.1275764 C49.4534463,21.1275764 49.068128,20.8212281 48.9835235,20.3803629 L46.5350508,7.61600337 C46.4389511,7.11617191 46.765874,6.63292472 47.2643048,6.53710449 C47.7673338,6.44220562 48.2455331,6.76836292 48.341173,7.26773371 L50.7896457,20.0320933 C50.8857453,20.5319247 50.5588225,21.0151719 50.0603916,21.1109921 C50.0015363,21.1220483 49.9431408,21.1275764 49.885665,21.1275764" id="Fill-13" fill="#1E2422"></path>
                    <path d="M68.7435486,31.5494539 C68.3407576,29.4497011 69.7128219,27.4208921 71.8081627,27.0173416 C73.9039633,26.6142517 75.9289537,27.9889034 76.3317447,30.0881955 C76.7345357,32.1879483 75.3620116,34.2167573 73.2666707,34.6203079 C71.1708701,35.0238584 69.1458797,33.6487461 68.7435486,31.5494539" id="Fill-15" fill="#70F9A1"></path>
                    <path d="M42.8233042,36.5394764 C42.4205132,34.4401843 43.7925775,32.4113753 45.8883781,32.0078247 C47.983719,31.6042742 50.0087093,32.9789258 50.4115003,35.0786787 C50.8142913,37.1784315 49.442227,39.2072404 47.3464264,39.6103303 C45.2506257,40.0138809 43.2256354,38.6392292 42.8233042,36.5394764" id="Fill-17" fill="#70F9A1"></path>
                    <polygon id="Fill-19" fill="#0CB148" points="74.5800637 43.6776685 49.0685878 48.5889157 44.165665 23.0293315 69.6776006 18.1176236"></polygon>
                    <path d="M52.0827611,31.6578506 C51.8629733,30.513536 52.6110794,29.4074573 53.7537,29.1877157 C54.8958608,28.9675135 55.9998576,29.7170303 56.2191855,30.8613449 C56.4389733,32.0061202 55.6908672,33.1121989 54.5482466,33.3319404 C53.4060859,33.551682 52.3025489,32.8021652 52.0827611,31.6578506" id="Fill-21" fill="#1E2422"></path>
                    <path d="M61.666382,29.8129427 C61.447054,28.6686281 62.1951601,27.5620888 63.3373209,27.3428079 C64.4794817,27.1226056 65.5839383,27.8721225 65.8032662,29.0164371 C66.023054,30.1612124 65.2749479,31.2668303 64.1323273,31.4870326 C62.9901666,31.7067742 61.8861698,30.9572573 61.666382,29.8129427" id="Fill-23" fill="#1E2422"></path>
                    <path d="M54.7998531,38.6827169 C56.1066248,40.5935933 58.4603772,41.6545258 60.8762035,41.1892449 C63.2920299,40.7244247 65.0852775,38.8651438 65.5919849,36.6046157 L54.7998531,38.6827169 Z" id="Fill-25" fill="#1E2422"></path>
                    <polygon id="Fill-27" fill="#70F9A1" points="53.7041788 17.7499135 46.1605839 19.2024191 46.7974167 22.5224978 54.3414714 21.0704528"></polygon>
                    <path d="M45.471655,6.78011011 C45.2835939,5.79887416 45.9250248,4.85034607 46.9044138,4.66146966 C47.8842627,4.47305393 48.8310055,5.11615506 49.0195264,6.09739101 C49.2075875,7.07862697 48.5656968,8.02715506 47.5863077,8.21603146 C46.6069186,8.40444719 45.6597161,7.76180674 45.471655,6.78011011" id="Fill-29" fill="#0CB148"></path>
                    <polygon id="Fill-31" fill="#12893D" points="67.839246 89.7347652 61.5017251 89.7347652 66.0997958 104.748136 72.4373167 104.748136"></polygon>
                    <polygon id="Fill-33" fill="#0CB148" points="51.4882305 89.7347652 46.8901598 104.748136 66.0995199 104.748136 61.5014492 89.7347652"></polygon>
                    <path d="M104.076871,74.8667831 C103.624421,74.8667831 103.168293,74.8373 102.712164,74.7769517 C99.995164,74.4180865 97.5788778,73.0250079 95.9056399,70.8515472 L93.6939678,68.1676596 C91.248254,64.9742663 86.6644373,64.3707831 83.4775145,66.8201876 C82.8195305,67.3269292 81.874627,67.2034685 81.3688392,66.5424011 C80.8630514,65.8822551 80.9871994,64.9360303 81.6465627,64.4297494 C86.1420965,60.9733112 92.6033055,61.8186483 96.0628939,66.310682 L98.2750257,68.9950303 C99.4599486,70.5419742 101.175029,71.5342663 103.104839,71.7885584 C105.035109,72.0437719 106.946987,71.5291989 108.491479,70.3429629 C111.667367,67.9009292 112.277531,63.3328843 109.861704,60.1404124 L98.2143312,46.6357494 C97.671299,46.0060079 97.7407299,45.0542551 98.3692862,44.5101989 C98.9969228,43.9661427 99.9468842,44.0343225 100.490836,44.6649854 L112.223273,58.2728393 C115.677804,62.784682 114.825781,69.2718955 110.322431,72.7338618 C108.506193,74.1297045 106.328547,74.8667831 104.076871,74.8667831" id="Fill-35" fill="#70F9A1"></path>
                    <path d="M79.3963588,67.7537438 C78.3286868,65.939609 78.9305743,63.6021483 80.7412945,62.5324629 C82.551555,61.4623169 84.8850759,62.0653393 85.9527479,63.8794742 C87.0208797,65.6931483 86.4185325,68.0310697 84.608272,69.1007551 C82.7975518,70.1709011 80.4644907,69.5678787 79.3963588,67.7537438" id="Fill-37" fill="#0CB148"></path>
                    <path d="M20.77321,106.04369 C18.3509463,106.04369 16.0298402,105.197431 14.1556666,103.615016 C12.0534286,101.839117 10.7668884,99.3496337 10.5333064,96.6044764 L9.75715209,87.4771393 C9.68680161,86.6479258 10.3006441,85.9186787 11.1282968,85.8477348 C11.9522711,85.7832404 12.6842839,86.3927124 12.7550942,87.2219258 L13.5312486,96.3488022 C13.6963193,98.2914652 14.6067373,100.053544 16.094673,101.310724 C17.5826087,102.566982 19.464599,103.169544 21.409583,103.002319 C23.3485894,102.836937 25.1073514,101.925263 26.3612453,100.434061 C27.6160588,98.9433191 28.2156473,97.051791 28.0501167,95.1091281 L27.3268402,86.6023191 C26.8449624,80.936027 31.0540363,75.9335663 36.7101232,75.4503191 C37.5317984,75.3858247 38.2661103,75.994836 38.3364608,76.8240494 C38.4072711,77.6532629 37.7934286,78.3825101 36.9653161,78.4534539 C35.0263096,78.6192966 33.2675476,79.5309708 32.0131939,81.022173 C30.7588402,82.5129146 30.1592518,84.4035213 30.3243225,86.3466449 L31.0480588,94.8534539 C31.2816408,97.5981506 30.4337566,100.270061 28.6616601,102.376263 C26.8895637,104.482926 24.4043064,105.771892 21.6643161,106.005915 C21.3663611,106.031252 21.0693257,106.04369 20.77321,106.04369" id="Fill-39" fill="#70F9A1"></path>
                    <path d="M36.9899617,62.6633865 C36.8658138,62.6633865 36.7402865,62.6481843 36.6147592,62.6154764 L7.79910965,55.1940157 C2.30211608,53.8239708 -1.06459132,48.2166449 0.306093569,42.6977685 L2.14578167,35.3256 C3.51600675,29.8094876 9.11001961,26.4373528 14.6208074,27.8087798 L22.8899778,29.869836 C23.6960196,30.0711506 24.1866338,30.8888472 23.9866177,31.696409 C23.7852222,32.5039708 22.9709039,32.9941281 22.1634826,32.7951169 L13.8943122,30.7336 C9.99514823,29.7606562 6.0343701,32.1492517 5.06463698,36.0548472 L3.22494887,43.4270157 C2.25521576,47.3316899 4.63793601,51.3003978 8.53664019,52.2719596 L37.3633251,59.6971056 C38.1684473,59.9039483 38.6526241,60.7253303 38.4457109,61.5315101 C38.2709842,62.2119258 37.6603605,62.6633865 36.9899617,62.6633865" id="Fill-41" fill="#70F9A1"></path>
                    <path d="M11.7288508,68.0295494 L12.4604039,76.6284933 C12.5192592,77.3208865 13.1271241,77.8345382 13.8182141,77.7755719 C14.509764,77.7166056 15.0224489,77.1071337 14.9631338,76.4147404 L14.2320405,67.8157966 C14.1727254,67.1234034 13.5648605,66.6097517 12.8737704,66.668718 C12.1822206,66.7281449 11.6699955,67.3371562 11.7288508,68.0295494" id="Fill-43" fill="#FBEEC8"></path>
                    <path d="M5.02348424,68.6022135 L5.7550373,77.2006966 C5.8138926,77.8935506 6.42221736,78.4067416 7.1133074,78.3477753 C7.80439743,78.288809 8.31708232,77.6797978 8.25822701,76.9869438 L7.52667395,68.3884607 C7.46781865,67.6956067 6.8599537,67.1824157 6.16840386,67.241382 C5.47731383,67.3003483 4.96462894,67.9093596 5.02348424,68.6022135" id="Fill-45" fill="#FBEEC8"></path>
                    <path d="M6.16578296,74.7749708 L6.82836495,82.5677348 C7.13919453,86.2158135 9.90447428,89.0558697 13.3557862,89.6155888 C12.7617154,89.8196674 12.1368376,89.9638584 11.4825322,90.0196 C7.18747428,90.3862966 3.40831994,87.1947461 3.0418537,82.8906674 L2.3792717,75.098364 L6.16578296,74.7749708 Z" id="Fill-47" fill="#12893D"></path>
                    <path d="M6.82859486,82.5677809 L6.16601286,74.7750169 L17.9352347,73.7698258 L18.5982765,81.5625899 C18.9081865,85.2106685 16.6624887,88.478691 13.3555563,89.6156348 C9.90424437,89.0559157 7.13942444,86.2158596 6.82859486,82.5677809" id="Fill-49" fill="#0CB148"></path>
                    <path d="M40.6342547,76.606427 C40.3225055,74.5237191 38.3844186,73.0887191 36.3060907,73.4015169 C34.2273029,73.7138539 32.7950039,75.6551348 33.1067531,77.7378427 C33.4185023,79.8205506 35.3561293,81.2555506 37.434917,80.9432135 C39.5137048,80.6304157 40.9460039,78.6891348 40.6342547,76.606427" id="Fill-51" fill="#0CB148"></path>
                    <path d="M121.715255,94.6366146 C121.477075,94.6366146 121.235676,94.5799517 121.01083,94.4601764 C120.277438,94.0699854 119.998795,93.1573899 120.388251,92.4221539 C122.27392,88.8680528 120.921168,84.4391315 117.373756,82.5508281 C115.654997,81.6350079 113.682885,81.4456708 111.822505,82.0159854 C109.961666,82.5867607 108.433727,83.8494685 107.52055,85.5710079 C104.856428,90.5928169 98.6117884,92.506918 93.5994315,89.8386933 L82.1888592,83.6228169 C81.4591453,83.2252551 81.1892386,82.3098955 81.5860521,81.5788056 C81.9833254,80.8472551 82.8969621,80.5773 83.6257563,80.9748618 L95.023454,87.1838281 C98.5584508,89.0666034 102.979036,87.7108393 104.864245,84.1567382 C106.154004,81.7243787 108.313258,79.9406483 110.942435,79.1344685 C113.571612,78.3287494 116.357123,78.5968618 118.785364,79.8890528 C123.797261,82.5577382 125.708679,88.8141539 123.045017,93.8368843 C122.77465,94.3463899 122.253689,94.6366146 121.715255,94.6366146" id="Fill-53" fill="#70F9A1"></path>
                    <path d="M77.5378186,80.4200719 C77.8495678,78.337364 79.7876547,76.902364 81.8659826,77.2147011 C83.9447704,77.5274989 85.3770695,79.4687798 85.0653203,81.5514876 C84.7535711,83.6341955 82.8159441,85.0691955 80.7371563,84.7568584 C78.6588283,84.4440607 77.2260695,82.5027798 77.5378186,80.4200719" id="Fill-55" fill="#0CB148"></path>
                    <path d="M41.877619,60.9088629 C41.5658698,58.8261551 39.627783,57.3906944 37.549455,57.7034921 C35.4706672,58.0158292 34.0383682,59.9575708 34.3501174,62.039818 C34.6618666,64.1225258 36.5994936,65.5575258 38.6782814,65.2451888 C40.7570691,64.932391 42.1893682,62.9915708 41.877619,60.9088629" id="Fill-57" fill="#0CB148"></path>
                    <polygon id="Fill-59" fill="#57E589" points="84.2512778 52.1983438 39.6835576 47.4091753 34.9034032 92.0604787 79.4711235 96.8501079"></polygon>
                    <polygon id="Fill-61" fill="#174C2A" points="79.641528 55.921973 43.400454 52.0274337 39.513245 88.3373101 75.754319 92.2318494"></polygon>
                    <polygon id="Fill-63" fill="#FFFFFF" points="60.8280617 73.954418 57.9685215 73.6471483 59.2467852 61.7115416 62.1054058 62.0188112"></polygon>
                    <path d="M64.1962405,65.0018607 L63.8431087,68.3021303 C65.3066746,69.6468382 66.1361666,71.646164 65.9085621,73.7758607 C65.527382,77.3350292 62.3381601,79.9115798 58.7847711,79.5296809 C55.2323016,79.147782 52.6610605,75.9525461 53.0417807,72.3933775 C53.269845,70.2632202 54.5035074,68.4854787 56.2185878,67.4830517 L56.5721794,64.182782 C53.1852405,65.2939281 50.5873305,68.3058157 50.1827003,72.0861079 C49.6323113,77.2272315 53.346173,81.8427258 58.4780797,82.3941528 C63.6104463,82.9455798 68.2167936,79.2247146 68.7671826,74.0831303 C69.1718129,70.3028382 67.2709704,66.8072427 64.1962405,65.0018607" id="Fill-65" fill="#FFFFFF"></path>
                    <path d="M73.1261077,101.459015 L44.515992,101.459015 C38.9422106,101.459015 34.4236865,105.98606 34.4236865,111.570352 C34.4236865,117.155104 38.9422106,121.681689 44.515992,121.681689 L73.1261077,121.681689 C78.6998891,121.681689 83.2184132,117.155104 83.2184132,111.570352 C83.2184132,105.98606 78.6998891,101.459015 73.1261077,101.459015" id="Fill-67" fill="#1E2422"></path>
                    <path d="M38.1264209,111.570444 C38.1264209,108.413444 40.6806492,105.85486 43.8317071,105.85486 C46.982765,105.85486 49.5365334,108.413444 49.5365334,111.570444 C49.5365334,114.727904 46.982765,117.286489 43.8317071,117.286489 C40.6806492,117.286489 38.1264209,114.727904 38.1264209,111.570444" id="Fill-69" fill="#57E589"></path>
                    <path d="M42.1151553,111.570444 C42.1151553,110.620534 42.8834929,109.851208 43.8316151,109.851208 C44.7797373,109.851208 45.5480749,110.620534 45.5480749,111.570444 C45.5480749,112.520815 44.7797373,113.29014 43.8316151,113.29014 C42.8834929,113.29014 42.1151553,112.520815 42.1151553,111.570444" id="Fill-71" fill="#0CB148"></path>
                    <path d="M53.1155338,111.570444 C53.1155338,108.413444 55.6702219,105.85486 58.8208199,105.85486 C61.9718778,105.85486 64.5261061,108.413444 64.5261061,111.570444 C64.5261061,114.727904 61.9718778,117.286489 58.8208199,117.286489 C55.6702219,117.286489 53.1155338,114.727904 53.1155338,111.570444" id="Fill-73" fill="#57E589"></path>
                    <path d="M68.1050605,111.570444 C68.1050605,108.413444 70.6597486,105.85486 73.8103466,105.85486 C76.9614045,105.85486 79.515173,108.413444 79.515173,111.570444 C79.515173,114.727904 76.9614045,117.286489 73.8103466,117.286489 C70.6597486,117.286489 68.1050605,114.727904 68.1050605,111.570444" id="Fill-75" fill="#57E589"></path>
                    <path d="M57.104682,111.570444 C57.104682,110.620534 57.8730196,109.851208 58.820682,109.851208 C59.7688042,109.851208 60.5376016,110.620534 60.5376016,111.570444 C60.5376016,112.520815 59.7688042,113.29014 58.820682,113.29014 C57.8730196,113.29014 57.104682,112.520815 57.104682,111.570444" id="Fill-77" fill="#0CB148"></path>
                    <path d="M72.0937949,111.570444 C72.0937949,110.620534 72.8625923,109.851208 73.8102547,109.851208 C74.7583768,109.851208 75.5267145,110.620534 75.5267145,111.570444 C75.5267145,112.520815 74.7583768,113.29014 73.8102547,113.29014 C72.8625923,113.29014 72.0937949,112.520815 72.0937949,111.570444" id="Fill-79" fill="#0CB148"></path>
                    <path d="M49.2161399,102.380363 L47.8367186,102.380363 C47.3290916,102.380363 46.9171045,101.967599 46.9171045,101.459015 C46.9171045,100.95043 47.3290916,100.537666 47.8367186,100.537666 L49.2161399,100.537666 C49.7237669,100.537666 50.135754,100.95043 50.135754,101.459015 C50.135754,101.967599 49.7237669,102.380363 49.2161399,102.380363 M55.1936318,102.380363 L53.8142106,102.380363 C53.3065836,102.380363 52.8945965,101.967599 52.8945965,101.459015 C52.8945965,100.95043 53.3065836,100.537666 53.8142106,100.537666 L55.1936318,100.537666 C55.7012588,100.537666 56.113246,100.95043 56.113246,101.459015 C56.113246,101.967599 55.7012588,102.380363 55.1936318,102.380363 M61.1711238,102.380363 L59.7917026,102.380363 C59.2840756,102.380363 58.8720884,101.967599 58.8720884,101.459015 C58.8720884,100.95043 59.2840756,100.537666 59.7917026,100.537666 L61.1711238,100.537666 C61.6787508,100.537666 62.0907379,100.95043 62.0907379,101.459015 C62.0907379,101.967599 61.6787508,102.380363 61.1711238,102.380363 M67.1486158,102.380363 L65.7691945,102.380363 C65.2615675,102.380363 64.8495804,101.967599 64.8495804,101.459015 C64.8495804,100.95043 65.2615675,100.537666 65.7691945,100.537666 L67.1486158,100.537666 C67.6562428,100.537666 68.0682299,100.95043 68.0682299,101.459015 C68.0682299,101.967599 67.6562428,102.380363 67.1486158,102.380363 M74.2305643,102.43979 C74.1969984,102.43979 74.1634325,102.437947 74.1298666,102.434262 C73.8020241,102.398329 73.4682042,102.380363 73.1380627,102.380363 L73.1270273,102.380363 L71.7466865,102.380363 C71.2390595,102.380363 70.8270723,101.967599 70.8270723,101.459015 C70.8270723,100.95043 71.2390595,100.537666 71.7466865,100.537666 L73.1261077,100.537666 C73.5316576,100.529374 73.9307701,100.558397 74.328963,100.602621 C74.8338312,100.657902 75.198918,101.112588 75.1437412,101.618408 C75.0922428,102.090138 74.69359,102.43979 74.2305643,102.43979 M41.8900338,102.726329 C41.4844839,102.726329 41.1129598,102.454992 41.0026061,102.04361 C40.8711013,101.552071 41.1612395,101.046711 41.6523135,100.914498 C42.1360305,100.784588 42.6326222,100.686925 43.1282942,100.624273 C43.6285643,100.5607 44.09159,100.918644 44.1550434,101.424003 C44.2184968,101.928902 43.8612267,102.389576 43.3572781,102.452689 C42.9448312,102.504745 42.5319244,102.585824 42.1291334,102.694543 C42.049127,102.716194 41.9691206,102.726329 41.8900338,102.726329 M79.6392749,104.768498 C79.4296029,104.768498 79.2185514,104.696633 79.045664,104.550138 C78.7270177,104.280183 78.3876801,104.030037 78.0373071,103.807992 C77.6083071,103.535273 77.4814003,102.96588 77.7531463,102.536071 C78.0248923,102.106262 78.592754,101.980037 79.0222138,102.251374 C79.4429373,102.519026 79.8507862,102.818925 80.2338055,103.1437 C80.6214228,103.472161 80.6697026,104.053531 80.3414003,104.44234 C80.1597765,104.657475 79.9004453,104.768498 79.6392749,104.768498 M36.8983682,105.857992 C36.6840981,105.857992 36.4689084,105.783363 36.2946415,105.631801 C35.9116222,105.297352 35.8720788,104.71506 36.2049791,104.331318 C36.534201,103.953104 36.8910113,103.594239 37.2671334,103.265318 C37.6496929,102.930869 38.2304293,102.970026 38.564709,103.352385 C38.8989887,103.735666 38.8599051,104.317498 38.4778055,104.652869 C38.1646768,104.926509 37.8662621,105.225947 37.5926768,105.541509 C37.4105932,105.750655 37.1554003,105.857992 36.8983682,105.857992 M82.8353939,109.724891 C82.4344421,109.724891 82.0661367,109.460464 81.9511849,109.05461 C81.8366929,108.65152 81.6946125,108.25488 81.5272428,107.875745 C81.3221688,107.410003 81.5323006,106.865947 81.9971656,106.660487 C82.4615707,106.455947 83.0036833,106.666015 83.2101367,107.131296 C83.4110723,107.588745 83.5830402,108.066464 83.7205225,108.551554 C83.8593842,109.041251 83.5761431,109.550296 83.0869084,109.689419 C83.0032235,109.713374 82.918619,109.724891 82.8353939,109.724891 M34.5013939,111.245576 C34.4641495,111.245576 34.4269051,111.243273 34.389201,111.238666 C33.8847926,111.177397 33.5256833,110.718104 33.5872974,110.213206 C33.6475322,109.71706 33.7436318,109.219071 33.871918,108.732599 C34.0025032,108.24106 34.5064518,107.950835 34.9966061,108.077981 C35.4876801,108.208812 35.7801174,108.713251 35.649992,109.20479 C35.5428569,109.609262 35.4628505,110.023869 35.4127315,110.435251 C35.3561752,110.902835 34.9593617,111.245576 34.5013939,111.245576 M82.7245804,115.624745 C82.6303199,115.624745 82.5346801,115.610003 82.4399598,115.578678 C81.9571624,115.422048 81.6932331,114.901947 81.8504871,114.417779 C81.9792331,114.020217 82.0817701,113.611138 82.1544196,113.20252 C82.2427026,112.701307 82.7181431,112.364093 83.2207122,112.457149 C83.7205225,112.54606 84.0543424,113.024239 83.9646801,113.525453 C83.8777765,114.017913 83.7545482,114.509453 83.5986736,114.988093 C83.4726865,115.377363 83.1121977,115.624745 82.7245804,115.624745 M35.5106704,117.059284 C35.1750113,117.059284 34.8522267,116.875015 34.689455,116.554846 C34.4632299,116.107531 34.2655129,115.640408 34.1027412,115.166835 C33.9372106,114.685891 34.1919437,114.161183 34.6719823,113.99534 C35.1529405,113.829958 35.6752814,114.085172 35.8412717,114.565655 C35.9769148,114.959992 36.1415257,115.34834 36.3305064,115.721487 C36.5599502,116.17479 36.3787862,116.729442 35.9258762,116.959779 C35.792992,117.027498 35.6504518,117.059284 35.5106704,117.059284 M79.3445386,120.456296 C79.071873,120.456296 78.8019662,120.335599 78.6203424,120.103419 C78.3072138,119.702633 78.3775643,119.123565 78.7771367,118.809846 C79.1045193,118.55279 79.4181077,118.270397 79.7087058,117.970037 C80.063217,117.604262 80.644873,117.59597 81.0095,117.950228 C81.374127,118.304487 81.3828633,118.8877 81.0292717,119.253015 C80.6802781,119.613262 80.3041559,119.952318 79.9114807,120.260509 C79.7431913,120.392722 79.5431752,120.456296 79.3445386,120.456296 M39.5873199,121.317756 C39.4355836,121.317756 39.2810884,121.279981 39.139008,121.200745 C38.7044904,120.956588 38.2805482,120.679262 37.8800563,120.375678 C37.4749662,120.068408 37.3949598,119.490722 37.7016511,119.084869 C38.0078826,118.679475 38.5840209,118.597936 38.9900305,118.906127 C39.3233907,119.159037 39.6756029,119.389835 40.0370113,119.592531 C40.4802653,119.840835 40.6388987,120.402397 40.3906029,120.846487 C40.2218537,121.148228 39.9096447,121.317756 39.5873199,121.317756 M73.8489244,122.5777 C73.3702653,122.5777 72.9665547,122.206397 72.9325289,121.720846 C72.896664,121.213644 73.2783039,120.773239 73.7854711,120.737307 C74.2025161,120.707363 74.6195611,120.649318 75.0246511,120.563633 C75.5249212,120.456756 76.0095579,120.776925 76.1143939,121.274913 C76.2192299,121.772902 75.9015032,122.261217 75.4044518,122.366711 C74.9175161,122.469442 74.4158666,122.539925 73.9146768,122.575397 C73.8926061,122.576779 73.8705354,122.5777 73.8489244,122.5777 M45.3427251,122.603037 L44.515992,122.603037 C44.3141367,122.603037 44.113201,122.59797 43.9141045,122.586913 C43.4069373,122.559734 43.0184003,122.125318 43.0455289,121.617194 C43.0731174,121.109531 43.4952203,120.724408 44.0138826,120.746981 C44.179873,120.756194 44.3472428,120.76034 44.515992,120.76034 L45.3427251,120.76034 C45.8508119,120.76034 46.2623392,121.173104 46.2623392,121.681689 C46.2623392,122.190734 45.8508119,122.603037 45.3427251,122.603037 M51.320217,122.603037 L49.9407958,122.603037 C49.4331688,122.603037 49.0211817,122.190734 49.0211817,121.681689 C49.0211817,121.173104 49.4331688,120.76034 49.9407958,120.76034 L51.320217,120.76034 C51.8283039,120.76034 52.2398312,121.173104 52.2398312,121.681689 C52.2398312,122.190734 51.8283039,122.603037 51.320217,122.603037 M57.297709,122.603037 L55.9182878,122.603037 C55.4106608,122.603037 54.9986736,122.190734 54.9986736,121.681689 C54.9986736,121.173104 55.4106608,120.76034 55.9182878,120.76034 L57.297709,120.76034 C57.8057958,120.76034 58.2173232,121.173104 58.2173232,121.681689 C58.2173232,122.190734 57.8057958,122.603037 57.297709,122.603037 M63.275201,122.603037 L61.8957797,122.603037 C61.3881527,122.603037 60.9761656,122.190734 60.9761656,121.681689 C60.9761656,121.173104 61.3881527,120.76034 61.8957797,120.76034 L63.275201,120.76034 C63.7832878,120.76034 64.1948151,121.173104 64.1948151,121.681689 C64.1948151,122.190734 63.7832878,122.603037 63.275201,122.603037 M69.2526929,122.603037 L67.8732717,122.603037 C67.3656447,122.603037 66.9536576,122.190734 66.9536576,121.681689 C66.9536576,121.173104 67.3656447,120.76034 67.8732717,120.76034 L69.2526929,120.76034 C69.7607797,120.76034 70.1723071,121.173104 70.1723071,121.681689 C70.1723071,122.190734 69.7607797,122.603037 69.2526929,122.603037" id="Fill-81" fill="#70F9A1"></path>
                    <g id="Group-85" transform="translate(104.836013, 70.086506)">
                        <mask id="mask-2" fill="white">
                            <use xlink:href="#path-1"></use>
                        </mask>
                        <g id="Clip-84"></g>
                        <path d="M36.7802437,4.02311348 L34.4830476,6.68396742 C34.3142984,6.87929326 34.0186424,6.90094494 33.8236842,6.73187753 L30.9894334,4.27510225 C30.7940154,4.10603483 30.7728643,3.81028202 30.9416135,3.61449551 L33.2388096,0.954562921 C33.4765299,0.678619101 33.3234141,0.2419 32.963845,0.185697753 C30.9319576,-0.131246067 28.7796006,0.648214607 27.4388032,2.45866404 C26.2400862,4.07609101 26.021218,6.17492247 26.7095492,7.97247303 L7.5020283,30.215664 C5.49037235,29.7536079 3.2970926,30.3911809 1.85237878,32.0638888 C0.502845016,33.6269562 0.139137621,35.7078213 0.706079743,37.5472933 C0.812754984,37.8946416 1.26612476,37.981709 1.50338521,37.7066865 L3.80104116,35.0458326 C3.97025016,34.8500461 4.2649865,34.8288551 4.4604045,34.9979225 L7.29465531,37.4546978 C7.4896135,37.6237652 7.51122444,37.919518 7.34247524,38.1153045 L5.04481929,40.7752371 C4.80709904,41.0511809 4.96021479,41.4879 5.31978392,41.5441022 C7.35213119,41.8610461 9.5044881,41.0815854 10.8457453,39.2715966 C12.0435428,37.653709 12.2628707,35.5548775 11.5749994,33.757327 L30.7816006,11.514136 C32.7932566,11.9761921 34.9874559,11.3386191 36.43171,9.66591124 C37.7812437,8.10284382 38.1444913,6.02197865 37.578009,4.18250674 C37.470874,3.83515843 37.017964,3.74809101 36.7802437,4.02311348" id="Fill-83" fill="#C28154" mask="url(#mask-2)"></path>
                    </g>
                    <polygon id="Fill-86" fill="#FBEEC8" points="131.927064 77.6159483 136.005093 81.1507011 114.521987 106.029409 110.443958 102.494656"></polygon>
                    <path d="M105.58605,108.664235 L107.883706,106.003381 C108.052455,105.808055 108.347651,105.786403 108.543069,105.955471 L111.37732,108.412246 C111.572278,108.581313 111.59343,108.877066 111.42468,109.072853 L109.127484,111.732785 C108.889764,112.008729 109.04288,112.445909 109.402449,112.501651 C111.434796,112.818594 113.586693,112.039134 114.92795,110.228684 C116.623719,107.940055 116.367606,104.684471 114.338018,102.686988 C111.941504,100.329718 108.097976,100.516291 105.935044,103.021898 C104.58505,104.584965 104.221803,106.66583 104.788745,108.504842 C104.89542,108.85219 105.34833,108.939257 105.58605,108.664235" id="Fill-88" fill="#FBEEC8"></path>
                    <path d="M140.862771,74.9810303 L138.565575,77.6414236 C138.396825,77.8372101 138.101169,77.8584011 137.906211,77.6893337 L135.07196,75.2330191 C134.876542,75.0639517 134.855391,74.7677382 135.024141,74.5724124 L137.321337,71.9124798 C137.559057,71.636536 137.405941,71.1993562 137.046372,71.1431539 C135.014485,70.8262101 132.862587,71.6056708 131.52133,73.4165809 C129.825562,75.7052101 130.081214,78.9607944 132.111263,80.9578169 C134.507317,83.3155472 138.350845,83.1285135 140.514237,80.6233674 C141.863771,79.0603 142.227018,76.9794348 141.660536,75.1404236 C141.553401,74.7930753 141.100491,74.7060079 140.862771,74.9810303" id="Fill-90" fill="#FBEEC8"></path>
                    <path d="M131.595267,82.1282517 L131.595267,82.1282517 C132.033463,82.5078472 132.081743,83.1716787 131.702402,83.6102404 L116.332891,101.409308 C115.95355,101.848791 115.291428,101.89624 114.853692,101.516645 C114.415955,101.13751 114.367676,100.473679 114.746557,100.034656 L130.116068,82.2351281 C130.494949,81.7965663 131.157531,81.7486562 131.595267,82.1282517" id="Fill-92" fill="#C28154"></path>
                    <path d="M112.23532,106.799472 C112.137381,106.799472 112.038983,106.765843 111.958976,106.696281 L110.160671,105.13782 C109.984565,104.985337 109.965253,104.718146 110.118368,104.541708 C110.270105,104.36573 110.536793,104.345921 110.712899,104.498865 L112.511664,106.057787 C112.687311,106.21027 112.706623,106.477 112.553967,106.653899 C112.471201,106.75018 112.353491,106.799472 112.23532,106.799472" id="Fill-94" fill="#3F3934"></path>
                    <path d="M136.02629,79.2476562 C135.928351,79.2476562 135.829952,79.214027 135.749946,79.1449258 L133.951641,77.5869258 C133.775534,77.4335213 133.756223,77.166791 133.908878,76.9903528 C134.061534,76.8143753 134.327763,76.795027 134.503869,76.9470494 L136.302634,78.5055101 C136.47828,78.6584539 136.497592,78.9251843 136.345396,79.1020831 C136.262171,79.198364 136.14446,79.2476562 136.02629,79.2476562" id="Fill-96" fill="#3F3934"></path>
                    <polygon id="Fill-98" fill="#FFFFFF" points="130.946847 45.9715955 97.1579244 54.1356629 91.4894228 30.5869213 125.278805 22.4228539"></polygon>
                    <polygon id="Fill-100" fill="#FF4B58" points="125.278759 22.4228079 91.4898367 30.5868753 89.0096373 20.2825157 122.79856 12.118909"></polygon>
                    <polygon id="Fill-102" fill="#3F3934" points="111.26361 43.0460382 104.958735 44.569027 104.551346 42.8774315 106.676575 42.3642404 105.16289 36.0751169 103.079964 36.5786337 102.757639 35.2394539 105.068629 33.9495663 106.728993 33.5487798 108.731452 41.867173 110.856221 41.353982"></polygon>
                    <path d="M117.682931,32.8415067 C116.416162,35.684327 116.271323,38.7326079 116.583072,41.7606191 L114.458304,42.2742708 C114.169545,38.9721584 114.500146,35.9529 115.381596,33.4270236 L112.510561,34.1207989 L112.808976,35.3623157 L110.782606,35.8515517 L110.036339,32.7498326 L117.241516,31.0084843 L117.682931,32.8415067 Z" id="Fill-104" fill="#3F3934"></path>
                    <path d="M93.0976441,23.5992315 C92.7987695,22.3567933 93.5615894,21.1065236 94.8016891,20.8066247 C96.0417887,20.5071865 97.2897051,21.2714449 97.5890395,22.5143438 C97.8879141,23.756782 97.1250942,25.0070517 95.8849945,25.3064899 C94.644435,25.6059281 93.3965186,24.8416697 93.0976441,23.5992315" id="Fill-106" fill="#3F3934"></path>
                    <path d="M95.6023051,24.1341202 C95.0086942,24.2778506 94.410945,23.9116146 94.267945,23.3164236 L92.602064,16.3943337 C92.4586042,15.7991427 92.823691,15.200727 93.4177617,15.0574573 C94.0118325,14.913727 94.6095817,15.2795022 94.7525817,15.8746933 L96.4184627,22.7967831 C96.5619225,23.3919742 96.1963759,23.9903899 95.6023051,24.1341202" id="Fill-108" fill="#FBEEC8"></path>
                    <path d="M100.79086,21.7403191 C100.491986,20.4978809 101.254805,19.2476112 102.494905,18.9477124 C103.735005,18.6482742 104.982921,19.4125326 105.282256,20.6554315 C105.58113,21.8978697 104.81831,23.1481393 103.578211,23.4475775 C102.337651,23.7470157 101.089735,22.9827573 100.79086,21.7403191" id="Fill-110" fill="#3F3934"></path>
                    <path d="M103.296027,22.2752539 C102.701956,22.4189843 102.104207,22.0527483 101.961207,21.458018 L100.295326,14.5359281 C100.151866,13.9407371 100.516953,13.3418607 101.111024,13.198591 C101.705095,13.0548607 102.302844,13.4210966 102.445844,14.015827 L104.111725,20.9383775 C104.255185,21.5331079 103.889638,22.1315236 103.296027,22.2752539" id="Fill-112" fill="#FBEEC8"></path>
                    <path d="M108.484122,19.8818674 C108.185248,18.6394292 108.948068,17.3891596 110.188167,17.0892607 C111.428267,16.7893618 112.676183,17.5540809 112.975518,18.7969798 C113.274392,20.039418 112.511572,21.289227 111.271473,21.5891258 C110.030913,21.888564 108.782997,21.1238449 108.484122,19.8818674" id="Fill-114" fill="#3F3934"></path>
                    <path d="M110.989243,20.4163416 C110.395172,20.5600719 109.797423,20.1942966 109.654423,19.5991056 L107.988542,12.6770157 C107.845082,12.0818247 108.210629,11.4829483 108.80424,11.3396787 C109.398311,11.1959483 109.99606,11.5621843 110.13906,12.1573753 L111.804941,19.0794652 C111.948401,19.6746562 111.582854,20.2730719 110.989243,20.4163416" id="Fill-116" fill="#FBEEC8"></path>
                    <path d="M116.177338,18.0230011 C115.878464,16.7805629 116.641284,15.5302933 117.881383,15.2303944 C119.121483,14.9309562 120.369399,15.6952146 120.668734,16.9381135 C120.967608,18.1805517 120.204788,19.4308213 118.964689,19.7302596 C117.724129,20.0296978 116.476213,19.2654393 116.177338,18.0230011" id="Fill-118" fill="#3F3934"></path>
                    <path d="M118.682459,18.5578899 C118.088388,18.7016202 117.490639,18.3353843 117.347639,17.7401933 L115.681758,10.8181034 C115.538298,10.223373 115.903845,9.62449663 116.497456,9.48122697 C117.091527,9.33749663 117.689276,9.70327191 117.832276,10.2984629 L119.498157,17.2205528 C119.641617,17.8157438 119.27653,18.4141596 118.682459,18.5578899" id="Fill-120" fill="#FBEEC8"></path>
                    <path d="M16.7750495,17.8713933 C16.313863,17.8713933 15.9161299,17.5240449 15.8627923,17.0541573 L14.2750785,3.01649438 C14.2176026,2.51067416 14.5808502,2.05414607 15.0847987,1.99702247 C15.5919659,1.93713483 16.0448759,2.30337079 16.1023518,2.80873034 L17.6900656,16.8459326 C17.7470817,17.3517528 17.3842939,17.8082809 16.8803453,17.8654045 C16.8444804,17.8695506 16.809535,17.8713933 16.7750495,17.8713933" id="Fill-122" fill="#1E2422"></path>
                    <path d="M30.208681,43.2426539 L24.3240701,43.9106315 C23.8578257,43.9631483 23.4366424,43.6277775 23.3837646,43.1601933 L20.2699511,15.6229348 C20.2175331,15.1553506 20.5522727,14.733373 21.0189768,14.6808562 L26.9035878,14.0128787 C27.439263,13.9520697 27.8949318,14.3998449 27.8452727,14.9374517 L27.1187775,22.8311034 C27.1137196,22.8891483 27.1141794,22.9476539 27.1206167,23.0052382 L28.4131344,34.4336427 C28.4191119,34.4916876 28.4319865,34.5488112 28.4503788,34.6036315 L30.9204624,42.1305865 C31.0887518,42.6433169 30.7443563,43.1818449 30.208681,43.2426539" id="Fill-124" fill="#FBEEC8"></path>
                    <path d="M24.7830495,43.8585292 L18.8988984,44.5265067 C18.4321942,44.5790236 18.0110109,44.2436528 17.9585929,43.7760685 L14.8447794,16.2388101 C14.7919016,15.7712258 15.127101,15.3492483 15.5933453,15.2967315 L21.4784161,14.6287539 C22.0136315,14.5679449 22.4697601,15.0157202 22.4196412,15.553327 L21.693146,23.4469787 C21.6880881,23.5050236 21.6890077,23.5630685 21.6949852,23.6211135 L22.9875029,35.049518 C22.9939402,35.1075629 23.006355,35.1642258 23.0247473,35.2195067 L25.4948309,42.7464618 C25.6631203,43.2591921 25.3187248,43.7977202 24.7830495,43.8585292" id="Fill-126" fill="#C28154"></path>
                    <g id="Group-130" transform="translate(13.334405, 0.064034)">
                        <mask id="mask-4" fill="white">
                            <use xlink:href="#path-3"></use>
                        </mask>
                        <g id="Clip-129"></g>
                        <path d="M0.160472669,2.19078202 C0.0602347267,1.30582697 0.694768489,0.507478652 1.57805788,0.40751236 C2.46134727,0.307085393 3.25819293,0.943276404 3.35843087,1.82777079 C3.45866881,2.71272584 2.82367524,3.51107416 1.94038585,3.61150112 C1.05709646,3.71192809 0.260250804,3.07573708 0.160472669,2.19078202" id="Fill-128" fill="#C28154" mask="url(#mask-4)"></path>
                    </g>
                    <path d="M23.2491791,33.3840427 C23.2110151,33.0482112 23.451954,32.744627 23.7876132,32.706391 C24.1228125,32.6686157 24.4258254,32.9104697 24.4639894,33.2463011 C24.5016936,33.5825933 24.2607547,33.8857169 23.9255553,33.9234921 C23.5898961,33.9617281 23.2873431,33.7198742 23.2491791,33.3840427" id="Fill-131" fill="#C28154"></path>
                    <path d="M24.9334984,33.1928629 C24.8957942,32.8570315 25.1362733,32.5534472 25.4719325,32.5152112 C25.8071318,32.477436 26.1101447,32.7192899 26.1483087,33.0551213 C26.1864727,33.3914135 25.945074,33.6945371 25.6098746,33.7323124 C25.2742154,33.7705483 24.9716624,33.5286944 24.9334984,33.1928629" id="Fill-133" fill="#C28154"></path>
                    <path d="M26.6177717,33.0016371 C26.5800675,32.6658056 26.8210064,32.3622213 27.1566656,32.3239854 C27.491865,32.2862101 27.7948778,32.528064 27.832582,32.8638955 C27.870746,33.2001876 27.6293473,33.5033112 27.2941479,33.5410865 C26.9584887,33.5793225 26.6559357,33.3374685 26.6177717,33.0016371" id="Fill-135" fill="#C28154"></path>
                    <path d="M23.0161029,31.3240461 C22.9783987,30.9882146 23.2188778,30.6846303 23.554537,30.6468551 C23.8897363,30.6086191 24.1927492,30.850473 24.2309132,31.1863045 C24.2690772,31.5225966 24.0276785,31.8257202 23.6924791,31.8639562 C23.3568199,31.9017315 23.0542669,31.6598775 23.0161029,31.3240461" id="Fill-137" fill="#C28154"></path>
                    <path d="M24.7004222,31.1328663 C24.662718,30.7970348 24.9036569,30.4934506 25.2393161,30.4556753 C25.5745154,30.4174393 25.8775283,30.6592933 25.9152325,30.9951247 C25.9533965,31.3314169 25.7119977,31.6345404 25.3767984,31.6727764 C25.0411392,31.7105517 24.7385862,31.4686978 24.7004222,31.1328663" id="Fill-139" fill="#C28154"></path>
                    <path d="M26.3852013,30.9416865 C26.3470373,30.6058551 26.5879762,30.3022708 26.9236354,30.2644955 C27.2588347,30.2262596 27.5618476,30.4681135 27.6000116,30.8039449 C27.6377158,31.1402371 27.396317,31.4433607 27.0611177,31.4815966 C26.7254585,31.5193719 26.4229055,31.277518 26.3852013,30.9416865" id="Fill-141" fill="#C28154"></path>
                    <path d="M22.7830727,29.2645101 C22.7453685,28.9286787 22.9863074,28.6250944 23.3219666,28.5868584 C23.6571659,28.5486225 23.9601788,28.7904764 23.997883,29.1263079 C24.0360469,29.4626 23.7946482,29.7657236 23.4594489,29.8039596 C23.1237897,29.8417348 22.8212367,29.6003416 22.7830727,29.2645101" id="Fill-143" fill="#C28154"></path>
                    <path d="M24.4678518,29.0733303 C24.4296878,28.7374989 24.6706267,28.4339146 25.0062859,28.3956787 C25.3414852,28.3574427 25.6444981,28.5992966 25.6826621,28.9351281 C25.7203662,29.2714202 25.4789675,29.5745438 25.1437682,29.6127798 C24.808109,29.6505551 24.5055559,29.4091618 24.4678518,29.0733303" id="Fill-145" fill="#C28154"></path>
                    <path d="M26.1521251,28.8821506 C26.1139611,28.5463191 26.3549,28.2427348 26.6905592,28.2044989 C27.0257585,28.1662629 27.3287714,28.4081169 27.3669354,28.7439483 C27.4050994,29.0802404 27.1637006,29.383364 26.8285013,29.4216 C26.4928421,29.4593753 26.1902891,29.217982 26.1521251,28.8821506" id="Fill-147" fill="#C28154"></path>
                    <path d="M22.5504563,27.2045135 C22.5122923,26.868682 22.7532312,26.5650978 23.0888904,26.5268618 C23.4240897,26.4890865 23.7271026,26.7304798 23.7652666,27.0663112 C23.8029707,27.4026034 23.561572,27.7061876 23.2263727,27.7439629 C22.8907135,27.7821989 22.5881605,27.5403449 22.5504563,27.2045135" id="Fill-149" fill="#C28154"></path>
                    <path d="M24.2347756,27.0133337 C24.1966116,26.6775022 24.4375505,26.373918 24.7732096,26.335682 C25.108409,26.2979067 25.4114219,26.5393 25.4495859,26.8751315 C25.4877498,27.2114236 25.2463511,27.5150079 24.9111518,27.5527831 C24.5754926,27.5910191 24.2729395,27.3491652 24.2347756,27.0133337" id="Fill-151" fill="#C28154"></path>
                    <path d="M25.9190949,26.8221539 C25.8813907,26.4863225 26.1218698,26.1827382 26.4575289,26.1445022 C26.7927283,26.106727 27.096201,26.3481202 27.1339051,26.6839517 C27.1720691,27.0202438 26.9306704,27.3238281 26.5954711,27.3616034 C26.2598119,27.3998393 25.9572588,27.1579854 25.9190949,26.8221539" id="Fill-153" fill="#C28154"></path>
                    <path d="M22.317426,25.1445629 C22.2792621,24.8087315 22.520201,24.5051472 22.8558601,24.4669112 C23.1910595,24.429136 23.4940723,24.6709899 23.5322363,25.0068213 C23.5704003,25.3431135 23.3290016,25.6462371 22.9938023,25.6840124 C22.6581431,25.7222483 22.35559,25.4803944 22.317426,25.1445629" id="Fill-155" fill="#C28154"></path>
                    <path d="M24.0017453,24.9533371 C23.9640412,24.6175056 24.2049801,24.3139213 24.5401794,24.2756854 C24.8753788,24.2379101 25.1788514,24.479764 25.2165556,24.8155955 C25.2547196,25.1518876 25.0133209,25.4550112 24.6781215,25.4927865 C24.3424624,25.5310225 24.0399093,25.2891685 24.0017453,24.9533371" id="Fill-157" fill="#C28154"></path>
                    <path d="M25.6860646,24.7621573 C25.6483605,24.4263258 25.8892994,24.1227416 26.2249585,24.0845056 C26.5601579,24.0467303 26.8631707,24.2885843 26.9008749,24.6244157 C26.9390389,24.9607079 26.6976402,25.2638315 26.3624408,25.3016067 C26.0267817,25.3398427 25.7242286,25.0979888 25.6860646,24.7621573" id="Fill-159" fill="#C28154"></path>
                    <path d="M23.7368045,18.3374573 C23.5059814,18.3374573 23.3068849,18.1637831 23.2802161,17.9283787 C23.251708,17.6754685 23.4333318,17.4474348 23.6857659,17.4193337 L25.9774444,17.1585921 C26.2289588,17.1346371 26.457483,17.3119966 26.485991,17.5649067 C26.514499,17.8178169 26.3328752,18.0458506 26.080901,18.0744124 L23.7887627,18.3346933 C23.77129,18.336536 23.7538174,18.3374573 23.7368045,18.3374573" id="Fill-161" fill="#1E2422"></path>
                    <path d="M26.2603637,40.6526978 C26.0295405,40.6526978 25.8304441,40.4790236 25.804235,40.2436191 C25.7752672,39.990709 25.956891,39.7626753 26.2093251,39.7345742 L28.5010035,39.4738326 C28.7534376,39.4383607 28.9810421,39.6272371 29.0095502,39.8796865 C29.0380582,40.1325966 28.8564344,40.3606303 28.6044601,40.3891921 L26.3123219,40.649473 C26.2948492,40.6517764 26.2773765,40.6526978 26.2603637,40.6526978" id="Fill-163" fill="#1E2422"></path>
                </g>
            </g>
        </g>
    </g>
</svg>