<?xml version="1.0" encoding="UTF-8"?>
<svg width="109px" height="119px" viewBox="0 0 109 119" version="1.1" xmlns="http://www.w3.org/2000/svg" xmlns:xlink="http://www.w3.org/1999/xlink">
    <!-- Generator: sketchtool 55.2 (78181) - https://sketchapp.com -->
    <title>2CFB1C10-8C98-4481-9A8B-9C189E427E6B</title>
    <desc>Created with sketchtool.</desc>
    <defs>
        <polygon id="path-1" points="0 118.39899 108.907862 118.39899 108.907862 0.202540404 0 0.202540404"></polygon>
        <path d="M0.520911602,0.59740404 L0.520911602,22.6027879 L3.67046961,22.6027879 C6.63274033,22.6027879 9.03435359,24.9996162 9.03435359,27.9559848 L9.03435359,27.9559848 L12.9667845,27.9559848 L15.9657901,27.9559848 L29.5570663,27.9559848 L29.5570663,0.59740404" id="path-3"></path>
        <path d="M0.520911602,0.59740404 L0.520911602,22.6027879 L3.67046961,22.6027879 C6.63274033,22.6027879 9.03435359,24.9996162 9.03435359,27.9559848 L9.03435359,27.9559848 L12.9667845,27.9559848 L15.9657901,27.9559848 L29.5570663,27.9559848 L29.5570663,0.59740404 L0.520911602,0.59740404 Z" id="path-5"></path>
    </defs>
    <g id="Landing-page" stroke="none" stroke-width="1" fill="none" fill-rule="evenodd">
        <g id="Landing-page-BAC-2019---facile" transform="translate(-86.000000, -724.000000)">
            <g id="4-PLUS" transform="translate(0.000000, 662.000000)">
                <g id="Group-47" transform="translate(86.000000, 62.000000)">
                    <g id="Group-24" transform="translate(0.000000, 0.398470)">
                        <path d="M63.9754122,13.3280601 C63.0209094,13.3280601 62.2464674,12.5557621 62.2464674,11.6025601 L62.2464674,1.92749949 C62.2464674,0.974898485 63.0209094,0.202600505 63.9754122,0.202600505 C64.9299149,0.202600505 65.7043569,0.974898485 65.7043569,1.92749949 L65.7043569,11.6025601 C65.7043569,12.5557621 64.9299149,13.3280601 63.9754122,13.3280601" id="Fill-1" fill="#174C2A"></path>
                        <path d="M57.5713309,17.3540465 C57.5713309,10.5812636 63.0725188,5.09043535 69.8588227,5.09043535 C76.6457287,5.09043535 82.1469166,10.5812636 82.1469166,17.3540465 C82.1469166,24.1274303 76.6457287,29.6176576 69.8588227,29.6176576 C63.0725188,29.6176576 57.5713309,24.1274303 57.5713309,17.3540465" id="Fill-3" fill="#FFBA00"></path>
                        <mask id="mask-2" fill="white">
                            <use xlink:href="#path-1"></use>
                        </mask>
                        <g id="Clip-6"></g>
                        <polygon id="Fill-5" fill="#FFBA00" mask="url(#mask-2)" points="69.8587624 29.6177778 73.1468287 29.6177778 73.1468287 5.09055556 69.8587624 5.09055556"></polygon>
                        <path d="M60.8590961,17.3540465 C60.8590961,10.5812636 66.360284,5.09043535 73.1471901,5.09043535 C79.9334939,5.09043535 85.4346818,10.5812636 85.4346818,17.3540465 C85.4346818,24.1274303 79.9334939,29.6176576 73.1471901,29.6176576 C66.360284,29.6176576 60.8590961,24.1274303 60.8590961,17.3540465" id="Fill-7" fill="#FFD600" mask="url(#mask-2)"></path>
                        <path d="M50.5715436,33.4765631 C49.6170409,33.4765631 48.8425989,32.7042652 48.8425989,31.7510631 L48.8425989,15.3338712 C48.8425989,14.3812702 49.6170409,13.6089722 50.5715436,13.6089722 C51.5260464,13.6089722 52.3004884,14.3812702 52.3004884,15.3338712 L52.3004884,31.7510631 C52.3004884,32.7042652 51.5260464,33.4765631 50.5715436,33.4765631" id="Fill-8" fill="#174C2A" mask="url(#mask-2)"></path>
                        <path d="M42.0097442,19.0793662 C41.0552414,19.0793662 40.2807994,18.3070682 40.2807994,17.3538662 L40.2807994,7.67880556 C40.2807994,6.72620455 41.0552414,5.95390657 42.0097442,5.95390657 C42.964247,5.95390657 43.738689,6.72620455 43.738689,7.67880556 L43.738689,17.3538662 C43.738689,18.3070682 42.964247,19.0793662 42.0097442,19.0793662" id="Fill-9" fill="#174C2A" mask="url(#mask-2)"></path>
                        <path d="M28.7414331,50.4536561 C31.7639249,53.4478884 31.781389,58.3208783 28.781179,61.336747 C25.7803669,64.3532167 20.8982508,64.371247 17.8757591,61.3764136 C15.9444718,59.4627975 14.4172674,53.5212116 13.5663448,49.4806207 C13.1604552,47.5537823 14.8574829,45.8481157 16.7905768,46.2393732 C20.8452564,47.059151 26.8095436,48.5400399 28.7414331,50.4536561" id="Fill-10" fill="#12893D" mask="url(#mask-2)"></path>
                        <path d="M25.4080807,53.0223131 C26.794368,54.3956212 26.8021967,56.6301768 25.426147,58.013702 C24.0506994,59.3966263 21.8110807,59.4050404 20.4253956,58.0311313 C19.0391083,56.6584242 18.1068873,50.7619141 18.1068873,50.7619141 C18.1068873,50.7619141 24.0223956,51.6490051 25.4080807,53.0223131" id="Fill-11" fill="#174C2A" mask="url(#mask-2)"></path>
                        <path d="M18.2874298,67.2334975 C18.2874298,69.2619066 16.6397834,70.9068712 14.6067227,70.9068712 C12.5736619,70.9068712 10.9254133,69.2619066 10.9254133,67.2334975 C10.9254133,65.2044874 12.5736619,63.5601237 14.6067227,63.5601237 C16.6397834,63.5601237 18.2874298,65.2044874 18.2874298,67.2334975" id="Fill-12" fill="#174C2A" mask="url(#mask-2)"></path>
                        <path d="M94.322879,85.7773636 C88.3230613,85.7773636 83.2145144,82.8973232 82.9477354,82.7452677 C81.9131387,82.1514697 81.5560282,80.8334545 82.1504094,79.8003182 C82.7447906,78.7689848 84.062426,78.4119848 85.0970227,79.0027778 C85.1632657,79.0400404 91.801426,82.7488737 97.7783597,80.9915202 C100.730393,80.1224596 103.102498,78.003899 104.829636,74.6941364 C105.38126,73.6375606 106.686851,73.2276717 107.744332,73.777596 C108.803017,74.3275202 109.214327,75.6299091 108.662702,76.6864848 C106.367078,81.0864798 103.106111,83.9298586 98.9707354,85.1372879 C97.4073983,85.5940556 95.8362326,85.7773636 94.322879,85.7773636" id="Fill-13" fill="#0CB148" mask="url(#mask-2)"></path>
                        <path d="M62.189679,91.8217823 L62.189679,91.8217823 C65.3121376,91.8217823 67.843226,94.3478278 67.843226,97.4640652 L67.843226,118.39905 L56.536132,118.39905 L56.536132,97.4640652 C56.536132,94.3478278 59.0672204,91.8217823 62.189679,91.8217823" id="Fill-14" fill="#12893D" mask="url(#mask-2)"></path>
                        <polygon id="Fill-15" fill="#174C2A" mask="url(#mask-2)" points="56.536674 118.398389 67.8431657 118.398389 67.8431657 110.471667 56.536674 110.471667"></polygon>
                        <path d="M29.9511525,91.8217823 L29.9511525,91.8217823 C33.073611,91.8217823 35.6046994,94.3478278 35.6046994,97.4640652 L35.6046994,118.39905 L24.2976055,118.39905 L24.2976055,97.4640652 C24.2976055,94.3478278 26.8286939,91.8217823 29.9511525,91.8217823" id="Fill-16" fill="#12893D" mask="url(#mask-2)"></path>
                        <polygon id="Fill-17" fill="#174C2A" mask="url(#mask-2)" points="24.2979669 118.398389 35.6044586 118.398389 35.6044586 110.471667 24.2979669 110.471667"></polygon>
                        <path d="M69.0300613,104.753476 L38.552216,104.753476 C24.1365144,104.753476 12.4500282,93.0902742 12.4500282,78.7032944 L12.4500282,78.7032944 C12.4500282,64.3163146 24.1365144,52.6531126 38.552216,52.6531126 L69.0300613,52.6531126 C83.445763,52.6531126 95.1322492,64.3163146 95.1322492,78.7032944 L95.1322492,78.7032944 C95.1322492,93.0902742 83.445763,104.753476 69.0300613,104.753476" id="Fill-18" fill="#70F9A1" mask="url(#mask-2)"></path>
                        <path d="M44.9178762,91.8217823 L44.9178762,91.8217823 C48.0403348,91.8217823 50.5714232,94.3478278 50.5714232,97.4640652 L50.5714232,118.39905 L39.2643293,118.39905 L39.2643293,97.4640652 C39.2643293,94.3478278 41.7954177,91.8217823 44.9178762,91.8217823" id="Fill-19" fill="#12893D" mask="url(#mask-2)"></path>
                        <polygon id="Fill-20" fill="#174C2A" mask="url(#mask-2)" points="39.2646906 118.398389 50.5717845 118.398389 50.5717845 110.471667 39.2646906 110.471667"></polygon>
                        <path d="M77.1564028,91.8217823 L77.1564028,91.8217823 C80.2788613,91.8217823 82.8099497,94.3478278 82.8099497,97.4640652 L82.8099497,118.39905 L71.5028558,118.39905 L71.5028558,97.4640652 C71.5028558,94.3478278 74.0339442,91.8217823 77.1564028,91.8217823" id="Fill-21" fill="#12893D" mask="url(#mask-2)"></path>
                        <polygon id="Fill-22" fill="#174C2A" mask="url(#mask-2)" points="71.5033978 118.398389 82.8098895 118.398389 82.8098895 110.471667 71.5033978 110.471667"></polygon>
                        <path d="M67.5521779,52.6531727 L59.3247856,52.6531727 L56.3257801,52.6531727 L47.0294652,52.6531727 C49.9917359,52.6531727 52.3933492,55.050001 52.3933492,58.0063697 L56.3257801,58.0063697 L59.3247856,58.0063697 L72.9160619,58.0063697 C72.9160619,55.050001 70.5144486,52.6531727 67.5521779,52.6531727" id="Fill-23" fill="#174C2A" mask="url(#mask-2)"></path>
                    </g>
                    <g id="Group-31" transform="translate(43.359116, 30.448975)">
                        <g id="Group-27">
                            <mask id="mask-4" fill="white">
                                <use xlink:href="#path-3"></use>
                            </mask>
                            <g id="Clip-26"></g>
                            <path d="M1.10324862,18.5786646 C1.10324862,11.8058818 6.60443646,6.31505354 13.3913425,6.31505354 C20.1776464,6.31505354 25.6788343,11.8058818 25.6788343,18.5786646 C25.6788343,25.3514475 20.1776464,30.8422758 13.3913425,30.8422758 C6.60443646,30.8422758 1.10324862,25.3514475 1.10324862,18.5786646" id="Fill-25" fill="#FFBA00" mask="url(#mask-4)"></path>
                        </g>
                        <mask id="mask-6" fill="white">
                            <use xlink:href="#path-5"></use>
                        </mask>
                        <g id="Clip-29"></g>
                        <polygon id="Fill-28" fill="#FFBA00" mask="url(#mask-6)" points="13.3913425 30.8426364 16.6788066 30.8426364 16.6788066 6.31541414 13.3913425 6.31541414"></polygon>
                        <path d="M4.39101381,18.5786646 C4.39101381,11.8058818 9.89280387,6.31505354 16.6791077,6.31505354 C23.4654116,6.31505354 28.9672017,11.8058818 28.9672017,18.5786646 C28.9672017,25.3514475 23.4654116,30.8422758 16.6791077,30.8422758 C9.89280387,30.8422758 4.39101381,25.3514475 4.39101381,18.5786646" id="Fill-30" fill="#FFD600" mask="url(#mask-6)"></path>
                    </g>
                    <g id="Group-46" transform="translate(0.000000, 46.075237)">
                        <path d="M21.6910602,44.0984551 L7.52226464,44.0984551 C3.36761823,44.0984551 6.02209945e-05,40.7370056 6.02209945e-05,36.5912379 C6.02209945e-05,32.4448692 3.36761823,29.0840207 7.52226464,29.0840207 L21.6910602,29.0840207 C25.8451044,29.0840207 29.2132646,32.4448692 29.2132646,36.5912379 C29.2132646,40.7370056 25.8451044,44.0984551 21.6910602,44.0984551" id="Fill-32" fill="#12893D"></path>
                        <path d="M12.8231575,44.0984551 L7.52250552,44.0984551 C3.36785912,44.0984551 0.000301104972,40.7370056 0.000301104972,36.5912379 C0.000301104972,32.4448692 3.36785912,29.0840207 7.52250552,29.0840207 L12.8231575,29.0840207 C16.9772017,29.0840207 20.3453619,32.4448692 20.3453619,36.5912379 C20.3453619,40.7370056 16.9772017,44.0984551 12.8231575,44.0984551" id="Fill-34" fill="#57E589"></path>
                        <path d="M8.48887182,36.5913581 C8.48887182,37.9436308 7.39044088,39.0392722 6.03607072,39.0392722 C4.68109834,39.0392722 3.58326961,37.9436308 3.58326961,36.5913581 C3.58326961,35.2390854 4.68109834,34.1434439 6.03607072,34.1434439 C7.39044088,34.1434439 8.48887182,35.2390854 8.48887182,36.5913581" id="Fill-36" fill="#174C2A"></path>
                        <path d="M16.7616105,36.5913581 C16.7616105,37.9436308 15.6637818,39.0392722 14.3088094,39.0392722 C12.953837,39.0392722 11.8560083,37.9436308 11.8560083,36.5913581 C11.8560083,35.2390854 12.953837,34.1434439 14.3088094,34.1434439 C15.6637818,34.1434439 16.7616105,35.2390854 16.7616105,36.5913581" id="Fill-38" fill="#174C2A"></path>
                        <path d="M29.5009403,21.5567298 C29.5009403,23.5851389 27.8526917,25.2301035 25.8202331,25.2301035 C23.7871724,25.2301035 22.1389238,23.5851389 22.1389238,21.5567298 C22.1389238,19.5277197 23.7871724,17.8833561 25.8202331,17.8833561 C27.8526917,17.8833561 29.5009403,19.5277197 29.5009403,21.5567298" id="Fill-40" fill="#174C2A"></path>
                        <path d="M30.9770773,4.77688838 C27.9545856,7.77112071 27.9371215,12.6441106 30.9373315,15.6599793 C33.9381436,18.676449 38.8202597,18.6944793 41.8427514,15.699646 C43.7740387,13.7860298 45.3012431,7.84444394 46.1521657,3.80385303 C46.5580552,1.87701465 44.8610276,0.17134798 42.9273315,0.562605556 C38.8732541,1.38238333 32.9089669,2.86327222 30.9770773,4.77688838" id="Fill-42" fill="#12893D"></path>
                        <path d="M34.3100685,7.34554545 C32.9243834,8.71885354 32.9159525,10.9534091 34.2920022,12.3369343 C35.6680519,13.7198586 37.9070685,13.7282727 39.2927536,12.3543636 C40.6790409,10.9816566 41.6112619,5.08514646 41.6112619,5.08514646 C41.6112619,5.08514646 35.6963558,5.97223737 34.3100685,7.34554545" id="Fill-44" fill="#174C2A"></path>
                    </g>
                </g>
            </g>
        </g>
    </g>
</svg>