<?xml version="1.0" encoding="UTF-8"?>
<svg width="450px" height="303px" viewBox="0 0 450 303" version="1.1" xmlns="http://www.w3.org/2000/svg" xmlns:xlink="http://www.w3.org/1999/xlink">
    <!-- Generator: sketchtool 55.2 (78181) - https://sketchapp.com -->
    <title>0AD145E0-85FE-4352-A404-594D590C9E92</title>
    <desc>Created with sketchtool.</desc>
    <defs>
        <polygon id="path-1" points="0.0235418232 0.554097222 46.3336427 0.554097222 46.3336427 83.1426389 0.0235418232 83.1426389"></polygon>
        <polygon id="path-3" points="0 302.298611 449.339392 302.298611 449.339392 0.554097222 0 0.554097222"></polygon>
    </defs>
    <g id="Landing-page" stroke="none" stroke-width="1" fill="none" fill-rule="evenodd">
        <g id="Landing-page-BAC-2019---facile" transform="translate(-711.000000, -1117.000000)">
            <g id="bloc-slider" transform="translate(0.000000, 1045.000000)">
                <g id="nos-offres">
                    <g id="Group-76" transform="translate(711.000000, 72.000000)">
                        <polygon id="Fill-1" fill="#F2ECE6" points="267.032808 257.329343 286.605351 257.329343 281.148487 85.6819472 272.48897 85.6819472"></polygon>
                        <g id="Group-75" transform="translate(0.000000, 0.147292)">
                            <path d="M227.097449,168.610242 C229.501193,170.05861 246.587153,155.712401 260.037309,133.422964 C273.488167,111.133526 275.806264,87.8930056 275.806264,87.8930056 C275.806264,87.8930056 256.31656,100.790144 242.866404,123.079582 C229.415546,145.369721 224.693003,167.161874 227.097449,168.610242" id="Fill-2" fill="#F2ECE6"></path>
                            <g id="Group-6" transform="translate(229.563183, 0.000000)">
                                <mask id="mask-2" fill="white">
                                    <use xlink:href="#path-1"></use>
                                </mask>
                                <g id="Clip-5"></g>
                                <path d="M0.720772231,0.638965278 C-1.73702808,1.99475 2.15571763,23.9510278 14.7508034,46.7335417 C27.3465913,69.5160556 46.3336427,83.1426389 46.3336427,83.1426389 C46.3336427,83.1426389 44.8979953,59.8305764 32.3022075,37.0480625 C19.7071217,14.2648472 3.17787051,-0.716819444 0.720772231,0.638965278" id="Fill-4" fill="#F2ECE6" mask="url(#mask-2)"></path>
                            </g>
                            <path d="M374.290304,87.3816229 C374.237551,90.1857757 352.985757,96.9962618 326.939813,96.5031854 C300.893167,96.010109 279.96922,85.5958868 279.96922,85.5958868 C279.96922,85.5958868 301.273666,75.9805465 327.31961,76.4743243 C353.365554,76.9674007 374.343557,84.5774701 374.290304,87.3816229" id="Fill-7" fill="#F2ECE6"></path>
                            <path d="M270.509392,79.5579806 C266.929048,83.7270361 267.409938,90.0065708 271.582793,93.5836542 C275.756349,97.1600361 282.041607,96.6802861 285.621248,92.5105292 C289.201591,88.3414736 288.720702,82.0619389 284.547847,78.4855569 C280.374992,74.9084736 274.089735,75.388925 270.509392,79.5579806" id="Fill-9" fill="#3F3934"></path>
                            <path d="M275.21312,221.813044 C296.316786,221.813044 313.423807,238.90519 313.423807,259.98894 L313.423807,298.164835 L118.77248,298.164835 L118.77248,230.842724 L244.105554,230.842724 L244.105554,221.813044 L275.21312,221.813044 Z" id="Fill-11" fill="#3F3934"></path>
                            <path d="M211.360086,241.060137 C200.366326,241.060137 202.282863,246.584276 193.537699,246.584276 C184.792535,246.584276 186.709774,241.060137 175.716014,241.060137 C164.721552,241.060137 166.639493,246.584276 157.894329,246.584276 C149.149165,246.584276 151.065702,241.060137 140.071942,241.060137 C129.078183,241.060137 130.994719,246.584276 122.249555,246.584276 L122.249555,284.982512 L211.360086,284.982512 L211.360086,241.060137 Z" id="Fill-13" fill="#9AE3F9"></path>
                            <path d="M211.360086,250.90939 C200.366326,250.90939 202.282863,256.433529 193.537699,256.433529 C184.792535,256.433529 186.709774,250.90939 175.716014,250.90939 C164.721552,250.90939 166.639493,256.433529 157.894329,256.433529 C149.149165,256.433529 151.065702,250.90939 140.071942,250.90939 C129.078183,250.90939 130.994719,256.433529 122.249555,256.433529 L122.249555,284.982863 L211.360086,284.982863 L211.360086,250.90939 Z" id="Fill-15" fill="#00C1F7"></path>
                            <path d="M211.360086,262.346308 C200.366326,262.346308 202.282863,267.870447 193.537699,267.870447 C184.792535,267.870447 186.709774,262.346308 175.716014,262.346308 C164.721552,262.346308 166.639493,267.870447 157.894329,267.870447 C149.149165,267.870447 151.065702,262.346308 140.071942,262.346308 C129.078183,262.346308 130.994719,267.870447 122.249555,267.870447 L122.249555,284.982933 L211.360086,284.982933 L211.360086,262.346308 Z" id="Fill-17" fill="#005BBB"></path>
                            <path d="M205.879563,259.988799 C205.879563,238.905049 222.987285,221.812903 244.090952,221.812903 C265.193214,221.812903 282.300936,238.905049 282.300936,259.988799 L282.300936,298.164695 L109.756474,298.164695 L109.756474,239.850522 C109.756474,234.87557 113.793136,230.842584 118.772621,230.842584 C123.751404,230.842584 127.788066,234.87557 127.788066,239.850522 L127.788066,283.446049 L206.033307,283.446049 L205.879563,259.988799 Z" id="Fill-19" fill="#F2ECE6"></path>
                            <path d="M215.389165,261.70117 C216.619119,277.767885 230.651958,289.796003 246.733315,288.56717 C262.814672,287.338337 274.853752,273.317573 273.623799,257.251559 C272.393846,241.184844 258.360304,229.156726 242.279649,230.385559 C226.198292,231.614392 214.159212,245.635156 215.389165,261.70117" id="Fill-21" fill="#3F3934"></path>
                            <path d="M239.855967,277.957751 C243.885608,273.931779 247.294657,265.097786 243.087402,260.894363 C238.879446,256.690939 230.038105,260.096182 226.007761,264.122856 C221.97812,268.148828 221.999181,273.555835 226.207137,277.759258 C230.414392,281.962682 235.826326,281.983724 239.855967,277.957751" id="Fill-23" fill="#FBF4DC"></path>
                            <path d="M249.157137,240.994697 C245.127496,245.020669 241.718448,253.854663 245.925702,258.058086 C250.133658,262.26151 258.975,258.856267 263.005343,254.829593 C267.034984,250.803621 267.013924,245.396614 262.805967,241.19319 C258.598713,236.989767 253.186778,236.968725 249.157137,240.994697" id="Fill-25" fill="#FBF4DC"></path>
                            <path d="M226.008042,254.829733 C230.037683,258.855706 238.879727,262.26165 243.086981,258.058226 C247.294236,253.854101 243.885889,245.02081 239.856248,240.994837 C235.825905,236.968164 230.41397,236.989907 226.206716,241.193331 C221.999462,245.396754 221.978401,250.803761 226.008042,254.829733" id="Fill-27" fill="#F2ECE6"></path>
                            <path d="M263.005062,264.122715 C258.975421,260.096743 250.133378,256.690799 245.926123,260.894222 C241.718869,265.098347 245.127215,273.931639 249.156856,277.957611 C253.1872,281.983583 258.599134,281.962542 262.806388,277.759118 C267.013643,273.555694 267.034704,268.148687 263.005062,264.122715" id="Fill-29" fill="#F2ECE6"></path>
                            <path d="M233.897644,260.286819 C234.34624,266.140611 239.459111,270.522889 245.318237,270.075403 C251.176661,269.627215 255.562933,264.519 255.115039,258.665208 C254.667145,252.812118 249.554275,248.42984 243.695148,248.877326 C237.836022,249.324812 233.44975,254.433028 233.897644,260.286819" id="Fill-31" fill="#3F3934"></path>
                            <path d="M17.4439938,255.040922 C16.5783931,255.040922 15.6966459,254.885915 14.8387676,254.558366 C11.0723869,253.120519 9.18463339,248.903769 10.625195,245.140116 C13.9485959,236.450609 14.3726209,227.121435 14.8212168,217.245178 C15.3028081,206.647894 15.800546,195.690095 19.9642746,184.803838 C21.4048362,181.040185 25.624025,179.155553 29.3925117,180.593401 C33.1581903,182.031248 35.0452418,186.247998 33.6053822,190.011651 C30.2819813,198.701158 29.8579563,208.030331 29.4100624,217.906588 C28.9270671,228.503172 28.4300312,239.461672 24.2656006,250.347928 C23.1549922,253.254484 20.3833853,255.040922 17.4439938,255.040922" id="Fill-33" fill="#0CB148"></path>
                            <path d="M139.993175,234.074233 C137.91447,234.074233 135.850507,233.191886 134.405733,231.479094 L91.5588534,180.660664 C88.9613495,177.579462 89.3558892,172.976949 92.4406006,170.38181 C95.5218019,167.785969 100.129914,168.18015 102.727418,171.261351 L145.574298,222.079081 C148.171802,225.160983 147.777262,229.762796 144.692551,232.358636 C143.324298,233.511018 141.653471,234.074233 139.993175,234.074233" id="Fill-35" fill="#0CB148"></path>
                            <path d="M81.8324649,296.968547 C77.8007176,296.968547 74.5306708,293.702178 74.5306708,289.673401 L74.5306708,227.28556 C74.5306708,227.170533 74.534181,227.054803 74.5383931,226.939074 C74.5875351,225.933984 74.6135101,224.928192 74.6408892,223.921699 C74.6703744,222.814908 74.7005616,221.708116 74.7525117,220.602727 C74.9448674,216.578859 78.3630421,213.47381 82.3926833,213.662484 C86.4216225,213.853963 89.5323089,217.27113 89.3399532,221.295699 C89.2922153,222.30079 89.2662402,223.307283 89.2388612,224.313074 C89.21078,225.360949 89.1819969,226.408824 89.134259,227.455297 L89.134259,289.673401 C89.134259,293.702178 85.8649142,296.968547 81.8324649,296.968547" id="Fill-37" fill="#0CB148"></path>
                            <path d="M59.2242824,296.968547 C55.1925351,296.968547 51.9224883,293.702178 51.9224883,289.673401 L51.9224883,227.28556 C51.9224883,227.170533 51.9259984,227.054803 51.9302106,226.939074 C51.9793526,225.933984 52.0053276,224.928192 52.0320047,223.921699 C52.0614899,222.814908 52.0923791,221.708116 52.1443292,220.602727 C52.3366849,216.578859 55.7548596,213.47381 59.7845008,213.662484 C63.8134399,213.853963 66.9234243,217.27113 66.7317707,221.295699 C66.6840328,222.30079 66.6580577,223.307283 66.6306786,224.313074 C66.6025975,225.360949 66.5738144,226.408824 66.5260764,227.455297 L66.5260764,289.673401 C66.5260764,293.702178 63.2567317,296.968547 59.2242824,296.968547" id="Fill-39" fill="#0CB148"></path>
                            <path d="M97.0617707,298.164555 C97.0617707,289.879749 90.3398518,283.163249 82.0467941,283.163249 C73.7544384,283.163249 67.0325195,289.879749 67.0325195,298.164555 L97.0617707,298.164555 Z" id="Fill-41" fill="#174C2A"></path>
                            <path d="M74.4535881,298.164555 C74.4535881,289.879749 67.7309672,283.163249 59.4386115,283.163249 C51.1462559,283.163249 44.4236349,289.879749 44.4236349,298.164555 L74.4535881,298.164555 Z" id="Fill-43" fill="#174C2A"></path>
                            <path d="M136.954657,140.968225 C134.043346,129.010246 128.178604,118.551836 120.342566,110.14569 C120.881724,111.880225 121.388588,113.632996 121.824548,115.42294 C129.060351,145.137982 119.913627,174.985586 100.186638,195.532774 C93.484376,202.512996 85.5612871,208.415885 76.6455304,212.878121 C70.9436583,215.732774 64.8374181,218.003169 58.3745476,219.574982 C53.4884321,220.762433 48.6002106,221.48276 43.7470905,221.813114 C56.6931903,226.983753 71.3073089,228.339537 85.8863261,224.796121 C91.0876521,223.531517 96.0018487,221.703697 100.591708,219.406649 C107.767839,215.814836 114.14436,211.063628 119.538042,205.445503 C135.416513,188.908156 142.77798,164.884885 136.954657,140.968225" id="Fill-45" fill="#12893D"></path>
                            <path d="M76.64539,212.878121 C85.5611466,208.415885 93.4842356,202.512996 100.186498,195.532774 C119.913487,174.985586 129.060211,145.137982 121.824407,115.42294 C121.388448,113.632996 120.882285,111.880225 120.342426,110.14569 C104.301786,92.9371139 79.9540484,84.3675444 55.4532683,89.4266625 C54.6529563,89.5914889 53.8519423,89.7514056 53.0516303,89.9463917 C37.620351,93.6967181 24.6721451,102.335024 15.4236271,113.804836 C2.33290952,130.038482 -3.33105304,151.951975 1.9825975,173.773586 C7.50334633,196.445982 23.5966381,213.764676 43.7476521,221.813114 C48.6000702,221.48276 53.4889938,220.762433 58.3751092,219.574982 C64.8379797,218.003169 70.9435179,215.732774 76.64539,212.878121" id="Fill-47" fill="#0CB148"></path>
                            <path d="M52.0387441,146.433377 C52.0141732,143.126328 54.6776677,140.425981 57.9877301,140.401433 C61.2970905,140.376884 64.0006006,143.037953 64.0244696,146.345002 C64.0490406,149.651349 61.385546,152.352398 58.0761856,152.376947 C54.7668253,152.400794 52.0633151,149.740426 52.0387441,146.433377" id="Fill-49" fill="#55312A"></path>
                            <path d="M79.5604914,150.463978 C77.2030811,148.143083 77.175,144.352076 79.4973089,141.99611 C81.8210218,139.640847 85.6154836,139.612791 87.9728939,141.933687 C90.3310062,144.254583 90.3590874,148.04559 88.0360764,150.401555 C85.7130655,152.756819 81.9179017,152.784874 79.5604914,150.463978" id="Fill-51" fill="#55312A"></path>
                            <path d="M71.1820671,184.425439 C79.2420515,184.365821 86.0327691,179.099793 88.4175585,171.849536 L53.7619423,172.105543 C56.2527379,179.320029 63.1213807,184.485057 71.1820671,184.425439" id="Fill-53" fill="#55312A"></path>
                            <path d="M52.7517941,166.282823 C52.7665367,168.323865 53.1308892,170.277233 53.7613105,172.105753 L88.4176287,171.849747 C89.0213729,170.012108 89.3569423,168.053128 89.3407956,166.012087 L52.7517941,166.282823 Z" id="Fill-55" fill="#FFFFFF"></path>
                            <path d="M15.4208892,113.843903 C15.4208892,83.9598271 39.6689392,59.7338549 69.5795476,59.7338549 C99.4915601,59.7338549 123.73961,83.9598271 123.73961,113.843903" id="Fill-57" fill="#174C2A"></path>
                            <path d="M124.624657,114.151112 C124.624657,119.602306 99.930117,124.021758 69.4684165,124.021758 C39.0067161,124.021758 14.3121763,119.602306 14.3121763,114.151112 C14.3121763,108.699917 39.0067161,108.17107 69.4684165,108.17107 C99.930117,108.17107 124.624657,108.699917 124.624657,114.151112" id="Fill-59" fill="#57E589"></path>
                            <mask id="mask-4" fill="white">
                                <use xlink:href="#path-3"></use>
                            </mask>
                            <g id="Clip-62"></g>
                            <polygon id="Fill-61" fill="#FFFFFF" mask="url(#mask-4)" points="69.2929797 88.4570625 71.9122465 88.4570625 71.9122465 77.5518681 69.2929797 77.5518681"></polygon>
                            <path d="M74.0950624,80.0440431 L74.0950624,83.0593139 C75.5510686,84.1317375 76.4967005,85.8571542 76.4967005,87.8028069 C76.4967005,91.0551472 73.8577769,93.6916681 70.6017707,93.6916681 C67.3471685,93.6916681 64.7082449,91.0551472 64.7082449,87.8028069 C64.7082449,85.8571542 65.6531747,84.1317375 67.109181,83.0593139 L67.109181,80.0440431 C64.1494306,81.3759806 62.0882761,84.3491681 62.0882761,87.8028069 C62.0882761,92.5007097 65.9002886,96.3092514 70.6017707,96.3092514 C75.3046568,96.3092514 79.1159672,92.5007097 79.1159672,87.8028069 C79.1159672,84.3491681 77.0555148,81.3759806 74.0950624,80.0440431" id="Fill-63" fill="#FFFFFF" mask="url(#mask-4)"></path>
                            <polygon id="Fill-64" fill="#F2ECE6" mask="url(#mask-4)" points="138.266888 205.048376 131.453705 187.155946 150.757371 179.818015 157.570554 197.710446"></polygon>
                            <path d="M149.493861,205.515221 L53.8965913,241.854179 C34.6547036,249.168262 13.1923011,240.022853 5.03192668,221.379936 L4.98699688,221.397471 L21.0030655,263.455554 L152.520304,213.462658 L149.493861,205.515221 Z" id="Fill-65" fill="#FD2837" mask="url(#mask-4)"></path>
                            <path d="M53.8966615,241.854319 L149.493931,205.515361 L136.504306,171.404014 L5.03199688,221.380076 C13.1923713,240.022292 34.6547738,249.168403 53.8966615,241.854319" id="Fill-66" fill="#FF4B58" mask="url(#mask-4)"></path>
                            <polygon id="Fill-67" fill="#FFFFFF" mask="url(#mask-4)" points="97.4320203 206.826467 78.0946568 214.177023 75.7639236 208.056703 61.0887285 227.647898 80.42539 220.297342 82.7561232 226.417662"></polygon>
                            <path d="M266.982754,298.161048 C266.982754,283.018763 279.269649,270.743756 294.425733,270.743756 C298.087512,270.743756 301.578697,271.466187 304.772925,272.766562 C312.502956,262.484902 324.808105,255.833631 338.668947,255.833631 C362.069649,255.833631 381.03915,274.78586 381.03915,298.164555 L296.299446,298.164555 C296.299446,298.163152 296.300148,298.162451 296.300148,298.161048 L266.982754,298.161048 Z" id="Fill-68" fill="#0CB148" mask="url(#mask-4)"></path>
                            <path d="M316.017098,302.298611 C317.187379,302.298611 318.253058,301.507444 318.55142,300.322097 L333.171154,242.169944 C333.522871,240.769972 332.672012,239.351063 331.271466,238.999667 C329.870218,238.647569 328.450016,239.497653 328.0983,240.896924 L313.479267,299.049076 C313.127551,300.448347 313.977707,301.867958 315.378253,302.219354 C315.591669,302.27266 315.80649,302.298611 316.017098,302.298611" id="Fill-69" fill="#3F3934" mask="url(#mask-4)"></path>
                            <polygon id="Fill-70" fill="#F2ECE6" mask="url(#mask-4)" points="320.880538 234.185684 410.115328 234.185684 449.339041 298.19233 360.103549 298.19233"></polygon>
                            <polygon id="Fill-71" fill="#999088" mask="url(#mask-4)" points="320.880538 234.185684 316.304017 239.41033 352.259087 298.19233 360.103549 298.19233"></polygon>
                            <polygon id="Fill-72" fill="#3F3934" mask="url(#mask-4)" points="332.012949 240.716947 354.375351 240.716947 385.59454 291.660926 363.232137 291.660926"></polygon>
                            <polygon id="Fill-73" fill="#3F3934" mask="url(#mask-4)" points="358.803814 240.716947 381.166217 240.716947 412.384704 291.660926 390.022301 291.660926"></polygon>
                            <polygon id="Fill-74" fill="#3F3934" mask="url(#mask-4)" points="385.59468 240.716947 407.957083 240.716947 439.175569 291.660926 416.813167 291.660926"></polygon>
                        </g>
                    </g>
                </g>
            </g>
        </g>
    </g>
</svg>