<?xml version="1.0" encoding="UTF-8"?>
<svg width="62px" height="109px" viewBox="0 0 62 109" version="1.1" xmlns="http://www.w3.org/2000/svg" xmlns:xlink="http://www.w3.org/1999/xlink">
    <!-- Generator: sketchtool 55.2 (78181) - https://sketchapp.com -->
    <title>1A59D3B1-70C6-4C41-B50F-DAB349FBC411</title>
    <desc>Created with sketchtool.</desc>
    <defs>
        <polygon id="path-1" points="0 0.425887264 31.6391305 0.425887264 31.6391305 26.9832163 0 26.9832163"></polygon>
        <polygon id="path-3" points="0.138083752 0.451642909 31.7767714 0.451642909 31.7767714 27.0089719 0.138083752 27.0089719"></polygon>
        <polygon id="path-5" points="0.138030391 0.451555006 31.7767714 0.451555006 31.7767714 24.9100161 0.138030391 24.9100161"></polygon>
        <polygon id="path-7" points="0.314694286 0.739266129 5.87698 0.739266129 5.87698 25.1866476 0.314694286 25.1866476"></polygon>
        <polygon id="path-9" points="0.15686 0.739266129 5.71914571 0.739266129 5.71914571 25.1866476 0.15686 25.1866476"></polygon>
    </defs>
    <g id="Landing-page" stroke="none" stroke-width="1" fill="none" fill-rule="evenodd">
        <g id="Landing-page-BAC-2019---facile" transform="translate(-310.000000, -734.000000)">
            <g id="4-PLUS" transform="translate(0.000000, 662.000000)">
                <g id="Group-26" transform="translate(310.000000, 72.000000)">
                    <g id="Group-3" transform="translate(0.000000, 51.123637)">
                        <mask id="mask-2" fill="white">
                            <use xlink:href="#path-1"></use>
                        </mask>
                        <g id="Clip-2"></g>
                        <path d="M10.2599371,20.4373242 C18.67068,27.1768645 27.2656514,28.8083484 30.4586514,24.8843484 C33.6516514,20.9594694 30.23368,12.964671 21.8220514,6.22513065 C13.4113086,-0.514409677 -0.000177142857,0.47713871 -0.000177142857,0.47713871 C-0.000177142857,0.47713871 1.84919429,13.6977839 10.2599371,20.4373242" id="Fill-1" fill="#12893D" mask="url(#mask-2)"></path>
                    </g>
                    <path d="M0,51.6006879 C0,51.6006879 13.4114857,50.6091395 21.8222286,57.3486798 C30.2329714,64.0882202 33.6509429,72.0830185 30.4588286,76.0078976 L0,51.6006879 Z" id="Fill-4" fill="#57E589"></path>
                    <g id="Group-8" transform="translate(30.114286, 66.067185)">
                        <mask id="mask-4" fill="white">
                            <use xlink:href="#path-3"></use>
                        </mask>
                        <g id="Clip-7"></g>
                        <path d="M21.5172771,20.4630798 C13.1065343,27.2026202 4.51156286,28.834104 1.31856286,24.910104 C-1.87443714,20.985225 1.54353429,12.9904266 9.95516286,6.25088629 C18.3659057,-0.488654032 31.7773914,0.502894355 31.7773914,0.502894355 C31.7773914,0.502894355 29.92802,13.7235395 21.5172771,20.4630798" id="Fill-6" fill="#12893D" mask="url(#mask-4)"></path>
                    </g>
                    <g id="Group-11" transform="translate(30.114286, 66.067185)">
                        <mask id="mask-6" fill="white">
                            <use xlink:href="#path-5"></use>
                        </mask>
                        <g id="Clip-10"></g>
                        <path d="M31.7772143,0.502806452 C31.7772143,0.502806452 18.3657286,-0.488741935 9.95498571,6.25079839 C1.54424286,12.9903387 -1.87461429,20.9851371 1.31838571,24.9100161 L31.7772143,0.502806452 Z" id="Fill-9" fill="#57E589" mask="url(#mask-6)"></path>
                    </g>
                    <path d="M30.91692,107.817614 C29.9382057,107.817614 29.1454914,107.030001 29.1454914,106.059549 L29.1454914,38.5656944 C29.1454914,37.5952427 29.9382057,36.8076298 30.91692,36.8076298 C31.8956343,36.8076298 32.6883486,37.5952427 32.6883486,38.5656944 L32.6883486,106.059549 C32.6883486,107.030001 31.8956343,107.817614 30.91692,107.817614" id="Fill-12" fill="#0CB148"></path>
                    <g id="Group-16" transform="translate(20.371429, 0.139766)">
                        <mask id="mask-8" fill="white">
                            <use xlink:href="#path-7"></use>
                        </mask>
                        <g id="Clip-15"></g>
                        <path d="M5.87698,3.49916371 L5.87698,22.4264863 C5.87698,23.9507282 4.63166571,25.1866476 3.09583714,25.1866476 C1.56000857,25.1866476 0.314694286,23.9507282 0.314694286,22.4264863 L0.314694286,3.49916371 C0.314694286,1.97492177 1.56000857,0.739002419 3.09583714,0.739002419 C4.63166571,0.739002419 5.87698,1.97492177 5.87698,3.49916371" id="Fill-14" fill="#FFD600" mask="url(#mask-8)"></path>
                    </g>
                    <g id="Group-19" transform="translate(35.428571, 0.139766)">
                        <mask id="mask-10" fill="white">
                            <use xlink:href="#path-9"></use>
                        </mask>
                        <g id="Clip-18"></g>
                        <path d="M5.71914571,3.49916371 L5.71914571,22.4264863 C5.71914571,23.9507282 4.47383143,25.1866476 2.93800286,25.1866476 C1.40217429,25.1866476 0.15686,23.9507282 0.15686,22.4264863 L0.15686,3.49916371 C0.15686,1.97492177 1.40217429,0.739002419 2.93800286,0.739002419 C4.47383143,0.739002419 5.71914571,1.97492177 5.71914571,3.49916371" id="Fill-17" fill="#FFD600" mask="url(#mask-10)"></path>
                    </g>
                    <path d="M39.7857543,17.3416363 L39.7857543,34.4941927 C39.7857543,42.5241524 34.2172686,49.2461121 26.7099543,51.1131766 C28.0588971,51.4489669 29.4627543,51.6467492 30.9170971,51.6467492 L30.9170971,51.6467492 C40.46244,51.6467492 48.20004,43.9675234 48.20004,34.4941927 L48.20004,17.3416363 L39.7857543,17.3416363 Z" id="Fill-20" fill="#174C2A"></path>
                    <path d="M39.7857543,34.4943685 L39.7857543,17.3418121 L13.6341543,17.3418121 L13.6341543,34.4943685 C13.6341543,42.5243282 19.2017543,49.2462879 26.7099543,51.1133524 C34.2172686,49.2462879 39.7857543,42.5243282 39.7857543,34.4943685" id="Fill-22" fill="#12893D"></path>
                    <path d="M39.8230429,108.260558 C39.8230429,103.287873 35.7611571,99.2566306 30.7506714,99.2566306 C25.7401857,99.2566306 21.6783,103.287873 21.6783,108.260558 L39.8230429,108.260558 Z" id="Fill-24" fill="#6B625C"></path>
                </g>
            </g>
        </g>
    </g>
</svg>