<?xml version="1.0" encoding="UTF-8"?>
<svg width="107px" height="100px" viewBox="0 0 107 100" version="1.1" xmlns="http://www.w3.org/2000/svg" xmlns:xlink="http://www.w3.org/1999/xlink">
    <!-- Generator: sketchtool 55.2 (78181) - https://sketchapp.com -->
    <title>B2A7E481-579E-4E76-B63E-320F07783C7E</title>
    <desc>Created with sketchtool.</desc>
    <defs>
        <polygon id="path-1" points="0.288229015 0.0167539267 81.2824554 0.0167539267 81.2824554 49.0031414 0.288229015 49.0031414"></polygon>
    </defs>
    <g id="Landing-page" stroke="none" stroke-width="1" fill="none" fill-rule="evenodd">
        <g id="Landing-page-BAC-2019---facile" transform="translate(-676.000000, -743.000000)">
            <g id="4-PLUS" transform="translate(0.000000, 662.000000)">
                <g id="Group-68" transform="translate(675.000000, 81.000000)">
                    <path d="M86.0925432,53.9368586 C85.4488286,53.9368586 84.8134944,53.6415707 84.4028579,53.0829319 C83.7172416,52.1515183 83.9173221,50.8405236 84.8496346,50.1551832 C89.3713499,46.831623 92.3479407,41.5091099 92.8125256,35.918534 C93.2771105,30.3274346 91.2192141,24.5871204 87.307692,20.5635602 C86.5016084,19.7337173 86.5204642,18.4080628 87.3501175,17.6023037 C88.1802946,16.7960209 89.5064828,16.8153927 90.3130902,17.644712 C95.0558369,22.5237696 97.5516059,29.4850262 96.9880283,36.2651309 C96.4249744,43.044712 92.8151444,49.4991623 87.3317855,53.5295288 C86.9583367,53.8043979 86.523083,53.9368586 86.0925432,53.9368586" id="Fill-3" fill="#57E589"></path>
                    <path d="M44.5452964,70.6177487 C42.0050069,70.6177487 39.4673362,70.2219372 37.0543231,69.4172251 C30.5977975,67.2643455 25.1799099,62.2297906 22.5615785,55.9496859 C22.1163732,54.8821466 22.6212884,53.6559686 23.6892576,53.2109424 C24.7567029,52.7664398 25.9838985,53.2706283 26.4291039,54.3381675 C28.5886118,59.5167016 33.055855,63.668534 38.3799875,65.4439267 C43.7041201,67.2193194 49.7704362,66.5810995 54.6079855,63.7355497 C55.6057693,63.1486387 56.8895321,63.4821466 57.4761557,64.4784817 C58.063303,65.4753403 57.7301846,66.7591099 56.7329246,67.3454974 C53.0597183,69.5062304 48.800936,70.6177487 44.5452964,70.6177487" id="Fill-11" fill="#57E589"></path>
                    <path d="M80.5931569,97.7146073 C79.7530281,97.7146073 78.959515,97.2057068 78.6384434,96.3748168 L67.4915482,67.5575393 C67.0741027,66.4790052 67.610968,65.2664398 68.6899364,64.8491623 C69.7694285,64.4318848 70.9824822,64.968534 71.3999277,66.0470681 L82.5468228,94.8643455 C82.9637446,95.9434031 82.427403,97.1559686 81.3479109,97.5732461 C81.0996435,97.6690576 80.8440432,97.7146073 80.5931569,97.7146073" id="Fill-13" fill="#57E589"></path>
                    <path d="M55.6309627,97.7143979 C55.502115,97.7143979 55.3711723,97.702356 55.2397057,97.6777487 C54.1031226,97.463089 53.3551775,96.367801 53.5699237,95.2311518 L57.9308413,72.15 C58.1455874,71.0133508 59.2413164,70.2657068 60.3784233,70.4803665 C61.5155303,70.6950262 62.2629515,71.7903141 62.0482054,72.9269634 L57.6872878,96.0086387 C57.4971589,97.0138743 56.6182711,97.7143979 55.6309627,97.7143979" id="Fill-15" fill="#57E589"></path>
                    <g id="Group-21" transform="translate(26.291719, 0.506806)">
                        <mask id="mask-2" fill="white">
                            <use xlink:href="#path-1"></use>
                        </mask>
                        <g id="Clip-20"></g>
                        <path d="M25.0794665,49.0031414 C17.1637149,49.0031414 9.43075935,47.3120419 1.93611963,45.6732984 C0.805821736,45.426178 0.0898267323,44.3099476 0.33704666,43.1795812 C0.584266588,42.0497382 1.7014702,41.334555 2.83176809,41.5816754 C10.5772941,43.2753927 18.5857533,45.0267016 26.5381689,44.7937173 C35.1662491,44.5408377 42.6483183,41.7900524 47.6063349,37.0486911 C50.97104,33.8303665 53.2709187,29.7256545 55.706454,25.3801047 C56.6701927,23.6591623 57.6679765,21.8795812 58.7338505,20.1664921 C63.5651146,12.4036649 70.2358624,5.55759162 78.0253853,0.368586387 C78.9886002,-0.273298429 80.2891237,-0.012565445 80.9307432,0.94973822 C81.5723627,1.91256545 81.3120485,3.21256545 80.3488336,3.8539267 C73.0537506,8.71413613 66.8093523,15.1198953 62.2918272,22.3790576 C61.2762351,24.0104712 60.3030686,25.7471204 59.361852,27.4267016 C56.8833675,31.8502618 54.3205558,36.4240838 50.5027887,40.0753927 C44.794732,45.534555 36.3274495,48.6968586 26.6612551,48.9801047 C26.1332938,48.9958115 25.6053326,49.0031414 25.0794665,49.0031414" id="Fill-19" fill="#1E2422" mask="url(#mask-2)"></path>
                    </g>
                    <path d="M90.5312932,99.9832461 C90.5312932,95.1633508 86.62239,91.2560209 81.8010776,91.2560209 C76.9787177,91.2560209 73.0703383,95.1633508 73.0703383,99.9832461 L90.5312932,99.9832461 Z" id="Fill-36" fill="#55312A"></path>
                    <path d="M63.8327457,99.9832461 C63.8327457,95.1633508 59.9238425,91.2560209 55.1025301,91.2560209 C50.2801702,91.2560209 46.3717907,95.1633508 46.3717907,99.9832461 L63.8327457,99.9832461 Z" id="Fill-38" fill="#55312A"></path>
                    <path d="M66.7362704,78.026178 C68.5919912,77.5010471 70.4204759,76.7706806 72.186108,75.8104712 C84.998595,68.8429319 89.734009,52.8120419 82.763664,40.004712 C81.6700301,37.995288 80.3522222,36.1848168 78.8594748,34.586911 C82.4677334,36.6570681 85.5663628,39.7172775 87.700206,43.6382199 C93.8456116,54.9287958 89.6706327,69.0617801 78.3749866,75.204712 C74.6734967,77.217801 70.667172,78.1162304 66.7362704,78.026178" id="Fill-40" fill="#12893D"></path>
                    <path d="M72.1860033,75.8105759 C70.4203711,76.7707853 68.5924102,77.5011518 66.7361657,78.0262827 C58.671663,77.841466 50.9271845,73.4744503 46.7951549,65.8833508 C40.6502731,54.5922513 44.825252,40.459267 56.1208981,34.3168586 C63.494023,30.306911 72.0775827,30.6948691 78.8598938,34.5870157 C80.3521175,36.1849215 81.6699254,37.9953927 82.7635593,40.0048168 C89.7339042,52.8121466 84.9984903,68.8425131 72.1860033,75.8105759" id="Fill-42" fill="#0CB148"></path>
                    <path d="M70.2295089,51.2813613 C70.037285,49.3714136 68.3318865,47.9787435 66.4211698,48.1708901 C64.510453,48.3635602 63.1172221,50.0677487 63.3099698,51.9776963 C63.5021938,53.887644 65.2070685,55.2803141 67.1177852,55.0881675 C69.0290257,54.8954974 70.4217329,53.1913089 70.2295089,51.2813613" id="Fill-44" fill="#1E2422"></path>
                    <path d="M55.3726388,52.7762827 C55.1804148,50.8663351 53.4750164,49.4736649 51.5642996,49.6658115 C49.6535829,49.8584817 48.2603519,51.5626702 48.4530997,53.4726178 C48.6453237,55.3825654 50.3501984,56.7752356 52.2609151,56.583089 C54.1721556,56.3904188 55.5648628,54.6862304 55.3726388,52.7762827" id="Fill-46" fill="#1E2422"></path>
                    <path d="M60.7225933,65.3763351 C58.412763,65.5936126 56.2480173,63.897801 54.9422562,61.2470157 L65.6318992,60.2423037 C64.8431,63.0899476 63.0329473,65.1590576 60.7225933,65.3763351" id="Fill-48" fill="#1E2422"></path>
                    <path d="M8.95646881,33.2141361 L22.2817277,35.4151832 C28.5203645,36.4460733 33.0326519,41.6 33.5270918,47.6256545 C33.9592029,46.6287958 34.2917975,45.5722513 34.4772124,44.4518325 L34.4772124,44.4518325 C35.6934088,37.095288 30.7133938,30.1460733 23.353887,28.9303665 L10.0286281,26.7293194 L8.95646881,33.2141361 Z" id="Fill-58" fill="#1E2422"></path>
                    <path d="M22.2817277,35.4153403 L8.95646881,33.2142932 L5.62423749,53.369267 L18.9500201,55.5708377 C25.1881331,56.6012042 31.1198401,53.1724084 33.5270918,47.6258115 C33.0326519,41.5996335 28.5203645,36.4457068 22.2817277,35.4153403" id="Fill-60" fill="#55312A"></path>
                    <path d="M13.4796507,40.9732984 C12.2508839,48.3293194 8.59443827,53.8486911 5.31248897,53.3010471 C2.03053967,52.7534031 0.365471556,46.3460733 1.5942384,38.9895288 C2.82300525,31.6335079 6.47945083,26.1141361 9.76140013,26.6623037 C13.0438732,27.2099476 14.7084175,33.6172775 13.4796507,40.9732984" id="Fill-62" fill="#FFD600"></path>
                    <path d="M8.77157763,35.211466 C8.5479274,36.550733 7.75493806,37.5339791 6.99966022,37.407801 C6.24490617,37.2821466 5.81436638,36.0941885 6.03801661,34.755445 C6.26166684,33.416178 7.05517995,32.4329319 7.80993401,32.5585864 C8.56468807,32.6847644 8.99522786,33.872199 8.77157763,35.211466" id="Fill-64" fill="#1E2422"></path>
                    <path d="M7.24578023,44.345445 C7.02213,45.684712 6.22914066,46.6679581 5.4743866,46.5423037 C4.71963254,46.4161257 4.28856898,45.2281675 4.51274298,43.8894241 C4.73639321,42.5501571 5.52938256,41.566911 6.28413662,41.6925654 C7.03889068,41.8187435 7.46943047,43.006178 7.24578023,44.345445" id="Fill-66" fill="#1E2422"></path>
                </g>
            </g>
        </g>
    </g>
</svg>